<?xml version="1.0" standalone="no"?>
<!DOCTYPE svg PUBLIC "-//W3C//DTD SVG 1.1//EN" "http://www.w3.org/Graphics/SVG/1.1/DTD/svg11.dtd" >
<svg xmlns="http://www.w3.org/2000/svg">
<metadata>
Created by FontForge 20120731 at Sun Dec 25 19:13:35 2016
 By admin
</metadata>
<defs>
<font id="iconfont" horiz-adv-x="1024" >
  <font-face 
    font-family="iconfont"
    font-weight="500"
    font-stretch="normal"
    units-per-em="1024"
    panose-1="2 0 6 3 0 0 0 0 0 0"
    ascent="896"
    descent="-128"
    x-height="792"
    bbox="-0.53125 -224 2000 896.721"
    underline-thickness="0"
    underline-position="0"
    unicode-range="U+0078-E6EC"
  />
<missing-glyph 
 />
    <glyph glyph-name=".notdef" 
 />
    <glyph glyph-name=".notdef" 
 />
    <glyph glyph-name=".null" horiz-adv-x="0" 
 />
    <glyph glyph-name="nonmarkingreturn" horiz-adv-x="341" 
 />
    <glyph glyph-name="x" unicode="x" horiz-adv-x="1001" 
d="M281 543q-27 -1 -53 -1h-83q-18 0 -36.5 -6t-32.5 -18.5t-23 -32t-9 -45.5v-76h912v41q0 16 -0.5 30t-0.5 18q0 13 -5 29t-17 29.5t-31.5 22.5t-49.5 9h-133v-97h-438v97zM955 310v-52q0 -23 0.5 -52t0.5 -58t-10.5 -47.5t-26 -30t-33 -16t-31.5 -4.5q-14 -1 -29.5 -0.5
t-29.5 0.5h-32l-45 128h-439l-44 -128h-29h-34q-20 0 -45 1q-25 0 -41 9.5t-25.5 23t-13.5 29.5t-4 30v167h911zM163 247q-12 0 -21 -8.5t-9 -21.5t9 -21.5t21 -8.5q13 0 22 8.5t9 21.5t-9 21.5t-22 8.5zM316 123q-8 -26 -14 -48q-5 -19 -10.5 -37t-7.5 -25t-3 -15t1 -14.5
t9.5 -10.5t21.5 -4h37h67h81h80h64h36q23 0 34 12t2 38q-5 13 -9.5 30.5t-9.5 34.5q-5 19 -11 39h-368zM336 498v228q0 11 2.5 23t10 21.5t20.5 15.5t34 6h188q31 0 51.5 -14.5t20.5 -52.5v-227h-327z" />
    <glyph glyph-name="icon" unicode="&#xe60f;" 
d="M0 278q0 142 52 216.5t150 74.5q188 0 188 -278q0 -137 -51 -211t-147 -74q-192 0 -192 272v0zM115 281q0 -188 80 -188t80 194t-77 194q-83 0 -83 -200zM421 420q0 66 37 106.5t101 40.5q60 0 93.5 -36.5t33.5 -101.5q0 -66 -37 -105.5t-100 -39.5q-58 0 -93 37t-35 99z
M498 424q0 -76 56 -76q57 0 57 79q0 76 -55 76q-58 0 -58 -79zM943 560l-354 -545h-88l353 545h89zM759 143q0 68 37.5 108t99.5 40q61 0 94.5 -36t33.5 -101q0 -67 -37.5 -107t-99.5 -40q-58 0 -93 37.5t-35 98.5zM836 147q0 -76 55 -76q57 0 57 79q0 37 -15 57t-40 20
q-57 0 -57 -80z" />
    <glyph glyph-name="icon2" unicode="&#xe610;" 
d="M610 603h-200q-7 0 -11 6t0 13q12 20 100 172q4 6 11 6t11 -6q65 -110 100 -173q3 -6 0 -12t-11 -6zM621 -45q-35 -63 -100 -173q-4 -6 -11 -6t-11 6q-88 151 -100 172q-4 7 0 13t11 6h200q8 0 11 -6t0 -12zM723 551h-113l-79 -147q-12 -21 -20 -37q-28 56 -92 173l-6 11
h-116l129 -222h-91v-89h124v-27h-124v-90h124v-98h102v98h119v90h-119v27h119v89h-88zM340 -40q-91 47 -145 135t-54 193t54 193t145 135v94q-127 -51 -206 -166t-79 -256t79 -256t206 -166v94v0zM681 710v-94q90 -47 144.5 -135t54.5 -193t-54.5 -193t-144.5 -135v-94
q127 51 205.5 166t78.5 256t-78.5 256t-205.5 166z" />
    <glyph glyph-name="icon1" unicode="&#xe613;" 
d="M511 -211l-25 14q-198 110 -302 228q-130 148 -130 324v2l29 398l425 57h3h1h3l425 -57l28 -398v-2q0 -176 -130 -324q-103 -118 -302 -228zM157 353q0 -124 87 -233t267 -214q181 105 267.5 214t87.5 233l-22 312l-333 44l-332 -44zM331 186v359h-74v57h74v43h78v-43h74
v-57h-74v-359h-78zM260 206v318h58v-318h-58zM421 206v318h58v-318h-58zM587 555q12 -77 42 -136q29 63 40 157h-176v54h273q-9 -177 -82 -291q31 -33 77 -69v-81q-76 28 -132 83q-55 -54 -131 -83v81q49 36 78 67q-58 90 -76 218h87z" />
    <glyph glyph-name="icon3" unicode="&#xe615;" 
d="M511 -212l-25 14q-199 110 -303 228q-130 148 -130 324v2l29 399l425 57h4v0h3l426 -57l28 -399v-2q0 -176 -130 -324q-104 -118 -302 -228zM156 353q0 -125 87 -234t268 -214q181 105 267.5 214t87.5 234l-22 312l-333 44l-333 -44zM302 489h417v-55h-158v-37h176v-55
h-176v-98h203v-54h-507v54h203v98h-176v55h176v37h-158v55zM360 500h-90l-11 44h17l54 94h106zM405 327l18 -43h16l-8 -27h-92l-33 70h99zM680 638l60 -94h24l-13 -44h-95l-53 78h-190l34 60h233zM715 327l-33 -70h-92l-8 27h17l17 43h99z" />
    <glyph glyph-name="icon4" unicode="&#xe618;" 
d="M511.5 789q-99.5 0 -190 -38.5t-156 -104t-104 -156t-38.5 -190t38.5 -190t104 -156t156 -104t190 -38.5t190 38.5t156 104t104 156t38.5 190t-38.5 190t-104 156t-156 104t-190 38.5zM403 29l-217 217l54 54l163 -163l380 381l54 -55z" />
    <glyph glyph-name="icon21" unicode="&#xe619;" 
d="M512 788q-99 0 -189.5 -38.5t-156 -104t-104 -156t-38.5 -189.5t38.5 -189.5t104 -156t156 -104t189.5 -38.5t189.5 38.5t156 104t104 156t38.5 189.5t-38.5 189.5t-104 156t-156 104t-189.5 38.5zM769 97l-54 -54l-203 203l-203 -203l-54 54l203 203l-203 203l54 54
l203 -203l203 203l54 -54l-203 -203z" />
    <glyph glyph-name="weibiaoti1" unicode="&#xe60b;" horiz-adv-x="1025" 
d="M480 140q0 13 9.5 22.5t23 9.5t22.5 -9.5t9 -22.5v-320q0 -13 -9 -22.5t-22.5 -9.5t-23 9.5t-9.5 22.5v320zM490 162q9 10 22.5 10t23 -9.5t9.5 -23t-10 -22.5l-122 -122q-9 -10 -22.5 -10t-23 9.5t-9.5 23t10 22.5zM490 117q-10 9 -10 22.5t10 22.5v0q9 10 22.5 10
t22.5 -10l122 -122q10 -9 10 -22.5t-9.5 -23t-23 -9.5t-22.5 10zM827 485q-20 113 -109 188t-206 75t-206 -75t-109 -188q-85 -20 -141 -89.5t-56 -159.5q0 -106 75 -181t181 -75q13 0 22.5 9.5t9.5 22.5t-9.5 22.5t-22.5 9.5q-79 0 -135.5 56t-56.5 136q0 34 11 65
q11 30 31 55q42 52 106 67l41 9l7 42q16 90 87 150q34 28 76 44q43 16 89 16t89 -16q42 -16 76 -44q71 -60 87 -150l7 -42l41 -9q64 -15 106 -67q20 -25 31 -55q11 -31 11 -65q0 -80 -56 -136t-136 -56v0q-13 0 -22.5 -9.5t-9.5 -22.5t9.5 -22.5t22.5 -9.5v0q106 0 181 75
t75 181q0 90 -56 159.5t-141 89.5z" />
    <glyph glyph-name="iconhuiyuan" unicode="&#xe603;" horiz-adv-x="2127" 
d="M881 384q-4 0 -12 1l-67 -381h-569l-76 381q-8 -1 -14 -1q-32 0 -55 23t-23 55.5t23 55t55.5 22.5t55.5 -22.5t23 -55.5q0 -29 -20 -51l164 -111l129 287q-31 6 -51.5 30.5t-20.5 56.5q0 37 26 63.5t63 26.5t63 -26.5t26 -63.5q0 -32 -20 -56.5t-51 -30.5l133 -286
l159 110q-20 22 -20 51q0 33 23 55.5t55.5 22.5t55.5 -22.5t23 -55t-23 -55.5t-55 -23z" />
    <glyph glyph-name="huoliutongzhi" unicode="&#xe606;" 
d="M907 159h-66q0 -41 -29 -70t-70 -29t-69.5 29t-28.5 70h-176q-18 0 -31 13t-13 31v461q0 18 13 31t31 13h439q18 0 31 -13t13 -31v-461q0 -18 -13 -31t-31 -13zM742.5 214q-22.5 0 -38.5 -16t-16 -39t16 -39t38.5 -16t38.5 16t16 39t-16 39t-38.5 16zM369 161v-0.5v-1.5
q0 -41 -28.5 -70t-69.5 -29t-70 29t-29 70h-52q-19 0 -33 13.5t-14 32.5v232l94 139h188q20 0 33.5 -13.5t13.5 -32.5v-325q0 -15 -9 -27t-24 -17zM270.5 104q22.5 0 39 16t16.5 39t-16.5 39t-39 16t-38.5 -16t-16 -39t16 -39t38.5 -16zM358 532h-164l-77 -110h241v110z" />
    <glyph glyph-name="xitongshezhi" unicode="&#xe60c;" 
d="M860 320q-14 -74 -57 -136l45 -84l-52 -52l-84 45q-62 -43 -136 -56l-27 -92h-74l-27 92q-74 13 -136 56l-84 -45l-52 52l45 84q-43 61 -56 136l-92 27v74l91 27q14 74 57 136l-45 84l52 52l84 -45q62 43 136 56l27 92h74l27 -92q74 -13 136 -56l84 45l52 -52l-45 -84
q43 -61 56 -136l92 -27v-74zM512 616q-96 0 -164 -68t-68 -164t68 -164t164 -68t164 68t68 164t-68 164t-164 68zM512 238q-61 0 -103.5 42.5t-42.5 103.5t42.5 103.5t103.5 42.5t103.5 -42.5t42.5 -103.5t-42.5 -103.5t-103.5 -42.5z" />
    <glyph glyph-name="xiaoshoudanju" unicode="&#xe60d;" 
d="M807 -17h-590q-20 0 -33.5 13.5t-13.5 33.5v708q0 20 13.5 33.5t33.5 13.5h482l155 -165v-590q0 -20 -13.5 -33.5t-33.5 -13.5zM618 632l-106 -186l-106 186h-71l130 -213h-118v-59h130v-59h-130v-59h130v-106h70v106h130v59h-130v59h130v59h-118l130 213h-71zM701 738
v-94q0 -10 7 -17t16 -7h95z" />
    <glyph glyph-name="weixinzhifu" unicode="&#xe611;" 
d="M844 101l23 -79l-85 48q-62 -16 -94 -16q-111 0 -188.5 66.5t-77.5 161.5t77.5 161.5t188.5 66.5q106 0 186 -67.5t80 -160.5q-1 -99 -110 -181zM605 387q-14 0 -24 -10t-10 -24.5t10 -24.5t24 -10t24 10t10 24.5t-10 24.5t-24 10zM778 387q-14 0 -24 -10t-10 -24.5
t10 -24.5t24 -10t24 10t10 24.5t-10 24.5t-24 10zM403 278q0 -33 9 -66q-17 -1 -29 -1v0v0q-31 0 -109 16l-110 -55l32 94q-126 88 -126 212q0 112 92 190t221 78q115 0 205 -63t110 -158q-16 2 -30 2q-111 0 -188 -73t-77 -176zM278.5 616q-17.5 0 -30 -12.5t-12.5 -30.5
t12.5 -30.5t30 -12.5t29.5 12.5t12 30.5t-12 30.5t-29.5 12.5zM498.5 616q-17.5 0 -30 -12.5t-12.5 -30t12.5 -30t30 -12.5t30 12.5t12.5 30t-12.5 30t-30 12.5z" />
    <glyph glyph-name="xianjin" unicode="&#xe612;" 
d="M836 770l-233 -352h184v-78h-216v-108h216v-78h-216v-156h-118v156h-223v78h223v108h-223v78h188l-230 352h135l161 -275q13 -22 30 -58h3q12 28 31 61l161 272h127v0zM836 770z" />
    <glyph glyph-name="yinlian" unicode="&#xe614;" 
d="M563 321l3 13h33l-3 -9q-19 0 -22 -1q-6 -1 -11 -3zM583 299h-25l2 9h30l-2 -8h-1q-2 0 -4 -1zM547 299l1 2l-1 -2v0zM544 284l-11 -44l-2 2t1 6l11 36h1zM957 604l-104 -441q-4 -21 -21.5 -36.5t-38.5 -18.5h-2h-222q-24 0 -36.5 16.5t-6.5 39.5l13 58h7l6 19h-8l10 43
h28h12t9 3q5 2 7 6q4 5 7 15l13 45h-40q-12 -2 -18 -4q-1 0 -3 -2l9 40h3l2 1q2 14 6 32l2 7q5 22 3 28l35 150q5 20 22.5 36t38.5 19h-9h-2q-21 -3 -38 -19t-22 -36l-33 -141q-3 1 -8 1q-10 0 -18 -4q-2 -1 -7 -4l2 8l-1 1q-14 -3 -30 -5l-1 -1q-3 -20 -9 -45
q-5 -22 -6 -27v-1h29l1 1q4 20 5 24q6 27 6 29q6 2 9 2q6 0 5 -8q-1 -6 -5 -26l-2 -7q0 -1 -1.5 -6.5t-1.5 -8.5v0h15l-8 -34h-22l-35 -114q-2 -7 -2 -9t4 -6q2 -1 8 -2h14h2l-14 -58q-5 -23 7.5 -39.5t36.5 -16.5h-220q-3 -1 -6 -1h-223q-23 0 -36 16.5t-7 39.5l104 441
q5 23 25.5 39.5t43.5 16.5h210q4 1 7 1h256q4 0 8 -1h193q23 0 36 -16.5t7 -39.5zM525 344h-29l5 9h-29l-7 -13q-2 -4 -4 -5t-7 -1h-4l-5 -17h13q6 0 13 3q1 1 2.5 1.5t2.5 1.5l4 3h40zM440 234q-1 -3 2 -7q2 -3 5 -4q5 -1 8 -1h32l6 19l-14 -2q-11 0 -10 3l7 23h29l5 18
h-29l5 14h28l5 17h-71l-5 -17h16l-4 -14h-16l-5 -18h16zM374 387v0h15h15h1l1 1q0 2 0.5 4.5t0.5 3.5t0.5 2t3.5 19q1 3 2.5 9l1.5 6q4 14 4 16v1v0q-12 -2 -16 -2q-2 -1 -4.5 -1t-5.5 -0.5t-6 -1.5v0h-1q-1 -11 -2 -15q-1 -8 -4 -19q-1 -7 -3 -11q-2 -6 -3 -11v-1zM419 471
q-12 7 -25 -3q-6 -3 -6.5 -8t4.5 -8q11 -6 25 3q5 4 5.5 8.5t-3.5 7.5zM266 520q0 -2 -4 -20.5t-8 -36.5l-4 -18q-6 -24 -14 -31q-7 -6 -16 -6q-16 0 -17 15l-1 3q3 19 4 19q16 65 19 73v1q-37 0 -38 1l-1 -5l-16 -72l-2 -7l-2 -20q0 -9 3 -15q9 -15 41 -15q25 0 41 10
q17 10 25 40l2 7q17 67 20 75v1q-28 0 -32 1zM447 660h-10h-2q-21 -3 -38 -19t-22 -36l-33 -142q-3 -1 -5 -2q-1 -1 -7 -4l2 8l-1 1q-14 -3 -30 -5l-1 -1q-3 -20 -9 -45q-3 -14 -6 -27v-1h29l1 1q3 13 5 24q6 26 6 29q6 2 9 2h2l-66 -279q-5 -23 7.5 -39.5t36.5 -16.5h12
q-24 0 -36.5 16.5t-6.5 39.5l52 223h23l1 1q2 13 6 32l2 7q5 23 3 30q-4 8 -16 8h-1l33 140q5 20 22.5 36t38.5 19h-1zM502 455q-8 10 -27 10q-21 0 -33 -12q-11 -9 -15 -29q-7 -28 12 -36q7 -3 18 -3q23 0 36 14q8 9 12 26q5 20 -3 30zM719 222q13 0 21 10l14 19l3 -19
q0 -4 5 -6q5 -3 6 -3h7h10l5 18h-3q-6 0 -7 1q0 1 -1 4l-3 19h-12l5 7h31l4 15h-28l4 14h29l5 17h-84l-5 -17h30l-5 -14h-30l-5 -15h27l-20 -28q-2 -3 -4 -4q-4 -1 -6 -1h-7l-5 -17h19zM591 280l-2 -7q-1 -2 -2 -2.5t-4 -0.5h-6l1 9h-24l-1 -47q-1 -6 2 -7q3 -3 21 -3h15
l6 18l-13 -1h-5l-1 1q-2 2 -2 4v12l14 1q8 0 13 4q3 3 5 9l2 10h-19zM626 245h-5l-5 -17h52l-2 -6h26l2 6h7l6 18h-7l27 89h9l3 9v-10q-1 -12 18 -11h15l5 17h-6q-4 0 -4 3l-1 10h-28v0q-36 -1 -41 -2l-14 -7l3 9h-27l-5 -18zM722 508q-8 12 -43 12h-10q-32 -1 -38 0l-1 -5
l-8 -40l-22 -88h33q1 1 2.5 8t2.5 13l1 6q4 17 5 18q1 2 2 3h2q39 0 55 11q17 13 22 35q1 6 1 12q0 9 -4 15zM796 464q-13 -2 -31 -5l-1 -1v-3q-4 6 -10 8q-14 5 -32 -11q-11 -10 -15 -29q-7 -28 12 -36q7 -3 16 -3q7 1 14 7q0 -2 -1 -5l1 -1q13 1 30 1l1 1q4 22 9 44
q3 14 8 32zM888 465q-15 -3 -29 -4l-1 -1v-1v0v0q-5 -11 -9 -18.5t-8 -15.5v1.5v0.5l-2 37l-1 1q-21 -4 -28 -4l-1 -1v-1v-1v0q1 -7 3 -20q0 -3 1 -9.5t1 -10.5q3 -21 4 -32q-4 -6 -9.5 -16t-10.5 -18l-6 -9q-1 -2 -2 -2q-2 -1 -4 -1h-4l-5 -16l18 -1q14 0 20 11l74 130z
M755 414q-1 -5 -3 -7q-4 -5 -11 -5q-6 0 -7 8q0 4 2 12q6 24 16 24q9 0 8 -14q-1 -4 -2 -7q-1 -5 -3 -11zM676 459q-7 -4 -22 -4h-5v2q1 2 2 6.5t3 13t3.5 14.5l1.5 6v2v1h4l19 -2q12 -4 9 -20q-3 -14 -15 -19zM680 266l-6 -20h-21l6 20h21zM663 277l7 24h21l-5 -17
q-7 0 -11 -1zM673 312l7 23h21l-5 -17q-6 0 -11 -1q-2 -1 -5 -2t-5 -2zM469 408q-4 -5 -8 -5q-7 0 -7 8q0 5 2 13q5 23 15 23t5 -21q-3 -12 -7 -18z" />
    <glyph glyph-name="bangzhu" unicode="&#xe616;" 
d="M512 -20q-110 0 -203 54t-147 147t-54 203t54 203t147 147t203 54t203 -54t147 -147t54 -203t-54 -203t-147 -147t-203 -54zM466 107q16 -16 41 -16q24 0 42 16q17 17 17 42t-17 41q-16 16 -42 16t-41 -16q-18 -16 -18 -41t18 -42zM647 635q-48 43 -127 43
q-88 0 -139 -52q-52 -51 -52 -139h86q0 54 22 83q24 34 79 34q43 0 67 -24q24 -25 24 -66q0 -31 -22 -59l-14 -15q-75 -67 -92 -100q-15 -31 -15 -77v-14h86v14q0 31 13 54q11 21 33 41q57 49 69 63q30 40 30 99q0 72 -48 115z" />
    <glyph glyph-name="fanhui" unicode="&#xe617;" 
d="M941 343h-701l348 -347l-59 -59l-446 447l446 447l59 -59l-348 -347h701v-82zM199 384l1 -1v2z" />
    <glyph glyph-name="sousuo" unicode="&#xe61a;" 
d="M701 223q2 -4 5 -7l18 -18q13 -13 28 -2l200 -201q11 -10 0 -21l-30 -30q-11 -11 -21 0l-201 200q11 15 -2 28l-18 18q-3 3 -7 5q-70 -64 -161 -84.5t-181 5t-157 92.5q-53 53 -80 120.5t-27 136.5t27 137t79.5 120.5t120.5 79.5t137 27t136.5 -27t120.5 -80
q67 -67 92.5 -157t5 -181t-84.5 -161zM225 671q-85 -85 -85 -205.5t85 -206t205.5 -85.5t206 85.5t85.5 206t-85.5 205.5t-206 85t-205.5 -85z" />
    <glyph glyph-name="tuikuan" unicode="&#xe61b;" 
d="M140 -63v894h613l131 -133v-761h-744zM289 638l-40 -40l92 -92l40 39zM382 458h-149v-55h93v-187l-93 -74l37 -56l74 56l56 -56h391v56h-353l-56 74v242zM760 357l-44 34l-57 -73l-88 70l-35 -44l219 -173l35 43l-88 70zM419 254l37 -75l152 53l-22 59l-93 -21v133h261
v223h-316v-368zM735 812v-130h131zM698 533h-205v56h205v-56zM698 440h-205v56h205v-56z" />
    <glyph glyph-name="anonymous-iconfont" unicode="&#xe61c;" 
d="M140 -63v894h614l130 -130v-764h-744zM512 403l-130 242h-93l149 -261h-112v-56h149v-56h-131v-56h131v-130h74v130h131v56h-131v56h149v56h-112l149 261h-93zM735 812v-130h131z" />
    <glyph glyph-name="fanjiezhang" unicode="&#xe61d;" 
d="M140 -63v894h613l131 -133v-761h-744v0zM294 586v-191q-6 -189 -80 -297l42 -45q90 125 97 333h42q30 -107 123 -192q-79 -56 -194 -94l33 -51q125 44 208 106q80 -59 193 -105l33 51q-108 40 -183 91q87 82 120 197v53h-374v92q217 6 395 41l-28 51q-190 -38 -427 -40z
M735 812v-130h131zM561 228q-82 70 -110 158h217q-32 -89 -107 -158z" />
    <glyph glyph-name="zhifuchenggong" unicode="&#xe623;" 
d="M512 -21q-110 0 -203.5 54t-147.5 147.5t-54 203.5t54 203.5t147.5 147.5t203.5 54t203.5 -54t147.5 -147.5t54 -203.5t-54 -203.5t-147.5 -147.5t-203.5 -54zM768 555l-315 -315l-189 189l-23 -23l212 -212l338 338z" />
    <glyph glyph-name="suo" unicode="&#xe626;" 
d="M787 -56h-550q-23 0 -39 16t-16 39v468q0 22 16 38.5t39 16.5h82v110q0 79 56.5 135.5t136.5 56.5t136.5 -56.5t56.5 -135.5v-110h82q23 0 39 -16.5t16 -38.5v-468q0 -23 -16 -39t-39 -16zM484 224v-115h56v115q24 9 39.5 30t15.5 47q0 35 -24.5 59t-58.5 24t-58.5 -24
t-24.5 -59q0 -26 15.5 -47t39.5 -30zM622 632q0 45 -32 77.5t-78 32.5t-78 -32.5t-32 -77.5v-110h220v110z" />
    <glyph glyph-name="wancheng" unicode="&#xe627;" 
d="M951 612l-536 -544l-342 348l85 88l258 -261l450 457z" />
    <glyph glyph-name="tianjiashipin-m" unicode="&#xe600;" 
d="M892 651q-14 8 -30.5 6t-28 -7t-21.5 -13l-108 -89v92q0 40 -28 68t-68 28h-416q-40 0 -68 -28t-28 -68v-224q0 -13 9.5 -22.5t22.5 -9.5t22.5 9.5t9.5 22.5v224q0 13 9.5 22.5t22.5 9.5h416q13 0 22.5 -9.5t9.5 -22.5v-160q0 -20 18.5 -29t33.5 4l160 132q5 4 11 5
q1 -5 1 -14v-388q0 -9 -1 -14q-6 1 -9 4l-162 133q-15 13 -33.5 4t-18.5 -29v-160q0 -13 -9.5 -22.5t-22.5 -9.5h-160q-13 0 -22.5 -9.5t-9.5 -22.5t9.5 -22.5t22.5 -9.5h160q40 0 68 28t28 68v92l110 -90q16 -13 35.5 -17t42.5 4q36 18 36 73v388q0 55 -36 73zM384 224h-96
v96q0 13 -9.5 22.5t-22.5 9.5t-22.5 -9.5t-9.5 -22.5v-96h-96q-13 0 -22.5 -9.5t-9.5 -22.5t9.5 -22.5t22.5 -9.5h96v-96q0 -13 9.5 -22.5t22.5 -9.5t22.5 9.5t9.5 22.5v96h96q13 0 22.5 9.5t9.5 22.5t-9.5 22.5t-22.5 9.5z" />
    <glyph glyph-name="shanchu-m" unicode="&#xe608;" 
d="M928 672h-160v64q0 40 -28 68t-67 28h-321q-40 0 -68 -28t-28 -68v-64h-160q-13 0 -22.5 -9.5t-9.5 -22.5t9.5 -22.5t22.5 -9.5h832q13 0 22.5 9.5t9.5 22.5t-9.5 22.5t-22.5 9.5zM320 736q0 13 9.5 22.5t22.5 9.5h321q13 0 22 -9.5t9 -22.5v-64h-384v64zM640 160v352
q0 13 -9.5 22.5t-22.5 9.5t-22.5 -9.5t-9.5 -22.5v-352q0 -13 9.5 -22.5t22.5 -9.5t22.5 9.5t9.5 22.5zM448 160v352q0 13 -9.5 22.5t-22.5 9.5t-22.5 -9.5t-9.5 -22.5v-352q0 -13 9.5 -22.5t22.5 -9.5t22.5 9.5t9.5 22.5zM800 543q-13 0 -22.5 -9.5t-9.5 -22.5v-479
q0 -13 -9.5 -22.5t-22.5 -9.5h-448q-13 0 -22.5 9.5t-9.5 22.5v480q0 14 -9.5 23t-22.5 9t-22.5 -9t-9.5 -23v-480q0 -40 28 -68t68 -28h448q40 0 68 28t28 68v479q0 13 -9.5 22.5t-22.5 9.5z" />
    <glyph glyph-name="zuixiaohua" unicode="&#xe629;" 
d="M65 440h894v-112h-894v112z" />
    <glyph glyph-name="zuidahua" unicode="&#xe62b;" 
d="M129 1v766h766v-766h-766zM800 672h-576v-576h576v576z" />
    <glyph glyph-name="danchujianpan" unicode="&#xe62c;" 
d="M931 61h-838q-12 0 -20 8t-8 20v343q0 11 8 19.5t20 8.5h838q12 0 20 -8.5t8 -19.5v-343q0 -12 -8 -20t-20 -8zM931 432h-838v-343h838v343zM203 322h-55v55h55v-55zM203 226h-55v55h55v-55zM203 130h-55v55h55v-55zM299 322h-55v55h55v-55zM299 226h-55v55h55v-55z
M299 130h-55v55h55v-55zM395 322h-55v55h55v-55zM395 226h-55v55h55v-55zM684 130h-344v55h344v-55zM780 322h-55v55h55v-55zM780 226h-55v55h55v-55zM780 130h-55v55h55v-55zM876 322h-55v55h55v-55zM876 226h-55v55h55v-55zM876 130h-55v55h55v-55zM629 281h55v-55h-55v55
zM629 377h55v-55h-55v55zM533 281h55v-55h-55v55zM533 377h55v-55h-55v55zM436 281h55v-55h-55v55zM436 377h55v-55h-55v55zM512 667l-138 -139l-20 20l158 159l158 -159l-20 -20z" />
    <glyph glyph-name="shouqijianpan" unicode="&#xe62d;" 
d="M931 317h-838q-12 0 -20 8.5t-8 19.5v344q0 11 8 19t20 8h838q12 0 20 -8t8 -19v-344q0 -11 -8 -19.5t-20 -8.5zM931 689h-838v-344h838v344zM203 579h-55v55h55v-55zM203 482h-55v55h55v-55zM203 386h-55v55h55v-55zM299 579h-55v55h55v-55zM299 482h-55v55h55v-55z
M299 386h-55v55h55v-55zM395 579h-55v55h55v-55zM395 482h-55v55h55v-55zM684 386h-344v55h344v-55zM780 579h-55v55h55v-55zM780 482h-55v55h55v-55zM780 386h-55v55h55v-55zM876 579h-55v55h55v-55zM876 482h-55v55h55v-55zM876 386h-55v55h55v-55zM629 537h55v-55h-55v55
zM629 634h55v-55h-55v55zM533 537h55v-55h-55v55zM533 634h55v-55h-55v55zM436 537h55v-55h-55v55zM436 634h55v-55h-55v55zM378 227l136 -136l136 136l20 -20l-156 -155l-155 155z" />
    <glyph glyph-name="fenxiang-m" unicode="&#xe60e;" 
d="M769 192q-54 0 -91 -38l-310 172q15 28 15 58q0 16 -6 36l303 188q37 -35 87 -35q53 0 90.5 37.5t37.5 90.5t-37.5 90.5t-90.5 37.5t-90.5 -37.5t-37.5 -90.5q0 -18 7 -39l-301 -187q-38 37 -90 37q-53 0 -90.5 -37.5t-37.5 -90.5t37.5 -90.5t90.5 -37.5q38 0 70 21
l321 -179q-5 -18 -5 -34q0 -53 37.5 -90.5t90.5 -37.5t90.5 37.5t37.5 90.5t-37.5 90.5t-90.5 37.5zM767.5 765q26.5 0 45 -19t18.5 -45.5t-18.5 -45t-45 -18.5t-45.5 18.5t-19 45t19 45.5t45.5 19zM191 384.5q0 26.5 19 45t45.5 18.5t45 -18.5t18.5 -45t-18.5 -45.5
t-45 -19t-45.5 19t-19 45.5zM768.5 0q-26.5 0 -45 19t-18.5 45.5t18.5 45t45 18.5t45.5 -18.5t19 -45t-19 -45.5t-45.5 -19z" />
    <glyph glyph-name="clock" unicode="&#xe696;" 
d="M512 768q78 0 150 -30q68 -29 121.5 -82.5t82.5 -122.5q30 -71 30 -149q0 -79 -30 -150q-29 -68 -82.5 -121.5t-121.5 -82.5q-72 -30 -150 -30t-150 30q-68 29 -121.5 82.5t-82.5 121.5q-30 72 -30 150t30 149q29 69 82.5 122.5t121.5 82.5q72 30 150 30zM512 832
q-122 0 -225 -60t-163 -163t-60 -225t60 -225t163 -163t225 -60t225 60t163 163t60 225t-60 225t-163 163t-225 60v0zM640 344h-149q-17 0 -28.5 11.5t-11.5 28.5v224q0 17 11.5 28.5t28.5 11.5t28.5 -11.5t11.5 -28.5v-184h109q17 0 28.5 -11.5t11.5 -28.5t-11.5 -28.5
t-28.5 -11.5z" />
    <glyph glyph-name="icons01" unicode="&#xe698;" 
d="M640 32h-448q-40 0 -68 28t-28 68v640q0 40 28 68t68 28h640q40 0 68 -28t28 -68v-448q0 -13 -9.5 -22.5t-22.5 -9.5t-22.5 9.5t-9.5 22.5v448q0 13 -9.5 22.5t-22.5 9.5h-640q-13 0 -22.5 -9.5t-9.5 -22.5v-640q0 -13 9.5 -22.5t22.5 -9.5h448q13 0 22.5 -9.5t9.5 -22.5
t-9.5 -22.5t-22.5 -9.5zM128 224q-13 0 -22.5 9.5t-9.5 22.5t9 23l160 159q22 22 52.5 27t58.5 -9l173 -87q21 -10 37 6l287 288q10 9 23 9t22.5 -9.5t9.5 -22.5t-9 -23l-288 -287q-22 -22 -52.5 -27t-58.5 9l-173 87q-21 10 -37 -6l-159 -160q-10 -9 -23 -9zM384 544
q-40 0 -68 28t-28 68t28 68t68 28t68 -28t28 -68t-28 -68t-68 -28zM384 672q-13 0 -22.5 -9.5t-9.5 -22.5t9.5 -22.5t22.5 -9.5t22.5 9.5t9.5 22.5t-9.5 22.5t-22.5 9.5zM768 32q-13 0 -22.5 9.5t-9.5 22.5v192q0 13 9.5 22.5t22.5 9.5t22.5 -9.5t9.5 -22.5v-192
q0 -13 -9.5 -22.5t-22.5 -9.5zM896 160q-13 0 -22 9l-106 99l-106 -99q-10 -9 -23 -9t-22 10t-9 23t10 22l112 106q15 17 38 17t38 -17l112 -106q10 -9 10 -22t-9 -23t-23 -10z" />
    <glyph glyph-name="img" unicode="&#xe699;" 
d="M832 32h-640q-40 0 -68 28t-28 68v640q0 40 28 68t68 28h640q40 0 68 -28t28 -68v-640q0 -39 -28.5 -67.5t-67.5 -28.5zM192 800q-13 0 -22.5 -9.5t-9.5 -22.5v-640q0 -13 9.5 -22.5t22.5 -9.5h640q13 0 22.5 9.5t9.5 22.5v640q0 13 -9.5 22.5t-22.5 9.5h-640v0zM128 224
q-13 0 -22.5 9.5t-9.5 22.5t9 23l160 159q22 22 52.5 27t58.5 -9l173 -87q21 -10 37 6l287 288q10 9 23 9t22.5 -9.5t9.5 -22.5t-9 -23l-288 -287q-22 -22 -52.5 -27t-58.5 9l-173 87q-21 10 -37 -6l-159 -160q-10 -9 -23 -9zM384 544q-40 0 -68 28t-28 68t28 68t68 28
t68 -28t28 -68t-28 -68t-68 -28zM384 672q-13 0 -22.5 -9.5t-9.5 -22.5t9.5 -22.5t22.5 -9.5t22.5 9.5t9.5 22.5t-9.5 22.5t-22.5 9.5z" />
    <glyph glyph-name="icons03" unicode="&#xe69c;" 
d="M560 480q-33 0 -56.5 -23.5t-23.5 -56.5t23.5 -56.5t56.5 -23.5t56.5 23.5t23.5 56.5t-23.5 56.5t-56.5 23.5zM560 384q-7 0 -11.5 4.5t-4.5 11.5t4.5 11.5t11 4.5t11.5 -4.5t5 -11.5t-4.5 -11.5t-11.5 -4.5zM896 608h-512q-40 0 -68 -28t-28 -68v-512q0 -40 28 -68
t68 -28h512q40 0 68 28t28 68v512q0 40 -28 68t-68 28zM928 0q0 -13 -9.5 -22.5t-22.5 -9.5h-512q-14 0 -23 9.5t-9 22.5v51l145 145q8 8 19.5 9.5t21.5 -5.5l104 -69q29 -19 63 -16t59 28l164 164v-307v0zM928 397l-209 -209q-9 -8 -20.5 -9.5t-20.5 5.5l-104 69
q-29 19 -63.5 16t-58.5 -28l-100 -100v371q0 13 9 22.5t23 9.5h512q13 0 22.5 -9.5t9.5 -22.5v-115v0zM896 608h-512q-40 0 -68 -28t-28 -68v-512q0 -40 28 -68t68 -28h512q40 0 68 28t28 68v512q0 40 -28 68t-68 28zM928 0q0 -13 -9.5 -22.5t-22.5 -9.5h-512q-14 0 -23 9.5
t-9 22.5v51l145 145q8 8 19.5 9.5t21.5 -5.5l104 -69q29 -19 63 -16t59 28l164 164v-307v0zM928 397l-209 -209q-9 -8 -20.5 -9.5t-20.5 5.5l-104 69q-29 19 -63.5 16t-58.5 -28l-100 -100v371q0 13 9 22.5t23 9.5h512q13 0 22.5 -9.5t9.5 -22.5v-115v0zM896 608h-512
q-40 0 -68 -28t-28 -68v-512q0 -40 28 -68t68 -28h512q40 0 68 28t28 68v512q0 40 -28 68t-68 28zM928 0q0 -13 -9.5 -22.5t-22.5 -9.5h-512q-14 0 -23 9.5t-9 22.5v51l145 145q8 8 19.5 9.5t21.5 -5.5l104 -69q29 -19 63 -16t59 28l164 164v-307v0zM928 397l-209 -209
q-9 -8 -20.5 -9.5t-20.5 5.5l-104 69q-29 19 -63.5 16t-58.5 -28l-100 -100v371q0 13 9 22.5t23 9.5h512q13 0 22.5 -9.5t9.5 -22.5v-115v0zM224 224h-96q-14 0 -23 9.5t-9 22.5v51l128 128v77v5q-16 -7 -28 -20l-100 -100v371q0 13 9 22.5t23 9.5h512q13 0 22.5 -9.5
t9.5 -22.5v-96h64v96q0 40 -28 68t-68 28h-512q-40 0 -68 -28t-28 -68v-512q0 -40 28 -68t68 -28h96v64zM249 598q17 28 44 46q-5 5 -5 12t4.5 11.5t11.5 4.5q13 0 16 -13q30 13 62 13q-5 27 -27 45.5t-51 18.5q-33 0 -56.5 -23.5t-23.5 -56.5q0 -34 25 -58z" />
    <glyph glyph-name="icons06" unicode="&#xe69d;" 
d="M538 611q60 -37 106 -105l-32 -13q-14 -5 -22.5 -17.5t-8 -27.5t9 -27t22.5 -18l200 -75q8 -3 17 -3q11 0 22 5q18 10 24 30l50 175q8 29 -14 49.5t-50 8.5l-39 -15q-108 108 -217 154q-97 41 -190 32q-47 -4 -91.5 -22t-59 -28.5t-22.5 -17.5l-91 -82l120 27
q157 36 266 -30zM583 672q104 -44 209 -154l14 -16l50 20l-37 -128l-146 55l64 25l-18 32q-60 106 -147 159q-32 20 -66 31q38 -7 77 -24zM387.5 536.5q-15.5 4.5 -30.5 -1t-24 -18.5l-273 -410q-16 -24 -2.5 -49.5t42.5 -25.5h273q20 0 34.5 14t14.5 34v410q0 16 -9.5 29
t-25 17.5zM358 96h-228l228 342v-342zM938 121l-409 273q-24 16 -49.5 2t-25.5 -43v-273q0 -20 14 -34t34 -14h410q16 0 28.5 9.5t17.5 25t-0.5 30.5t-19.5 24zM518 96v228l342 -228h-342z" />
    <glyph glyph-name="icons07" unicode="&#xe69e;" 
d="M136 360q6 -20 24 -30q11 -5 22 -5q9 0 17 3l200 75q14 6 22.5 18t9 27t-8 27.5t-22.5 17.5l-32 13q45 68 106 105q108 66 266 30l120 -27l-91 82q-8 7 -22.5 17.5t-58.5 28.5t-92 22q-93 9 -190 -32q-109 -46 -217 -154l-39 15q-28 12 -50 -9q-23 -20 -14 -49zM205 502
l15 16q105 110 209 154q39 17 77 24q-34 -12 -66 -31q-87 -53 -147 -159l-18 -32l64 -25l-146 -55l-37 128zM952 107l-273 410q-9 13 -24 18.5t-30.5 1t-25 -17.5t-9.5 -29v-410q0 -20 14 -34t34 -14h274q28 0 42 25.5t-2 49.5zM654 96v342l228 -342h-228zM532.5 396
q-25.5 14 -49.5 -2l-410 -273q-13 -9 -18.5 -24t-0.5 -30.5t17.5 -25t28.5 -9.5h410q20 0 34 14t14 34v273q0 29 -25.5 43zM494 96h-342l342 228v-228z" />
    <glyph glyph-name="pintu-m" unicode="&#xe61e;" 
d="M800 32h-512q-18 0 -27.5 15.5t-0.5 31.5l10 19q50 95 50 118q0 6 -0.5 8t-3.5 3.5t-11 1.5q-19 0 -31 -8q-26 -19 -67 -19t-67 20q-44 34 -44 147q0 62 29 92t70 30q26 0 52 -11q44 -19 62 -17v2q1 71 -21 204q-2 16 10 28q7 6 18.5 13t48 16.5t83.5 9.5q59 0 85 -36
q22 -31 9 -68q-29 -83 -6 -116q17 -24 72 -24q9 0 23.5 8.5t25.5 23.5q34 43 16 111q-8 31 12 58q34 43 115 43q22 0 36.5 -1.5t39.5 -13.5t43 -34q8 -9 8 -20l1 -511q0 -52 -37.5 -88t-90.5 -36zM341 96h459q26 0 45 17.5t19 41.5l-1 499q-13 12 -26.5 15t-36.5 3
q-21 0 -36.5 -4.5t-22 -9t-6.5 -6.5q26 -99 -27 -168q-20 -25 -47 -40.5t-53 -15.5q-88 0 -124 51q-42 60 -2 175q2 5 -1 8q-7 10 -33 10q-58 0 -93 -15q18 -135 18 -193q0 -29 -18.5 -47t-49.5 -18q-34 0 -84 22q-14 6 -26 6q-35 0 -35 -58q0 -82 20 -97q8 -6 27 -6
q20 0 31 7q28 20 67 20q36 0 57.5 -21t21.5 -56q0 -37 -43 -120z" />
    <glyph glyph-name="daiqueren" unicode="&#xe6a5;" 
d="M384 0h-224q-40 0 -68 28t-28 68v640q0 40 28 68t68 28h512q40 0 68 -28t28 -68v-192q0 -13 -9.5 -22.5t-22.5 -9.5t-22.5 9.5t-9.5 22.5v192q0 13 -9.5 22.5t-22.5 9.5h-512q-13 0 -22.5 -9.5t-9.5 -22.5v-640q0 -13 9.5 -22.5t22.5 -9.5h224q13 0 22.5 -9.5t9.5 -22.5
t-9.5 -22.5t-22.5 -9.5zM688 -64q-113 0 -192.5 79.5t-79.5 192.5t79.5 192.5t192.5 79.5t192.5 -79.5t79.5 -192.5t-80 -192.5t-192 -79.5zM688 416q-86 0 -147 -61t-61 -147t61 -147t147 -61t147 61t61 147t-61 147t-147 61zM800 128h-128q-13 0 -22.5 9.5t-9.5 22.5v160
q0 13 9.5 22.5t22.5 9.5t22.5 -9.5t9.5 -22.5v-128h96q13 0 22.5 -9.5t9.5 -22.5t-9.5 -22.5t-22.5 -9.5zM608 576h-384q-13 0 -22.5 9.5t-9.5 22.5t9.5 22.5t22.5 9.5h384q13 0 22.5 -9.5t9.5 -22.5t-9.5 -22.5t-22.5 -9.5zM384 384h-160q-13 0 -22.5 9.5t-9.5 22.5
t9.5 22.5t22.5 9.5h160q13 0 22.5 -9.5t9.5 -22.5t-9.5 -22.5t-22.5 -9.5zM320 192h-96q-13 0 -22.5 9.5t-9.5 22.5t9.5 22.5t22.5 9.5h96q13 0 22.5 -9.5t9.5 -22.5t-9.5 -22.5t-22.5 -9.5z" />
    <glyph glyph-name="yiwancheng" unicode="&#xe6a6;" 
d="M384 0h-224q-40 0 -68 28t-28 68v640q0 40 28 68t68 28h512q40 0 68 -28t28 -68v-192q0 -13 -9.5 -22.5t-22.5 -9.5t-22.5 9.5t-9.5 22.5v192q0 13 -9.5 22.5t-22.5 9.5h-512q-13 0 -22.5 -9.5t-9.5 -22.5v-640q0 -13 9.5 -22.5t22.5 -9.5h224q13 0 22.5 -9.5t9.5 -22.5
t-9.5 -22.5t-22.5 -9.5zM688 -64q-113 0 -192.5 79.5t-79.5 192.5t79.5 192.5t192.5 79.5t192.5 -80t79.5 -192q0 -113 -80 -192.5t-192 -79.5zM688 416q-86 0 -147 -61t-61 -147t61 -147t147 -61t147 61t61 147t-61 147t-147 61zM608 576h-384q-13 0 -22.5 9.5t-9.5 22.5
t9.5 22.5t22.5 9.5h384q13 0 22.5 -9.5t9.5 -22.5t-9.5 -22.5t-22.5 -9.5zM384 384h-160q-13 0 -22.5 9.5t-9.5 22.5t9.5 22.5t22.5 9.5h160q13 0 22.5 -9.5t9.5 -22.5t-9.5 -22.5t-22.5 -9.5zM320 192h-96q-13 0 -22.5 9.5t-9.5 22.5t9.5 22.5t22.5 9.5h96q13 0 22.5 -9.5
t9.5 -22.5t-9.5 -22.5t-22.5 -9.5zM704 96q-10 0 -18 5l-96 64q-11 8 -13.5 21t5 24t20.5 13.5t24 -4.5l68 -46l78 131q7 12 20 15t24.5 -3.5t14.5 -19.5t-4 -24l-96 -160q-7 -12 -20 -15q-3 -1 -7 -1z" />
    <glyph glyph-name="yibaoxiu" unicode="&#xe6b3;" 
d="M416 0h-192q-40 0 -68 28t-28 68v640q0 40 28 68t68 28h512q40 0 68 -28t28 -68v-256q0 -13 -9.5 -22.5t-22.5 -9.5t-22.5 9.5t-9.5 22.5v256q0 13 -9.5 22.5t-22.5 9.5h-512q-13 0 -22.5 -9.5t-9.5 -22.5v-640q0 -13 9.5 -22.5t22.5 -9.5h192q13 0 22.5 -9.5t9.5 -22.5
t-9.5 -22.5t-22.5 -9.5zM672 576h-384q-13 0 -22.5 9.5t-9.5 22.5t9.5 22.5t22.5 9.5h384q13 0 22.5 -9.5t9.5 -22.5t-9.5 -22.5t-22.5 -9.5zM416 384h-128q-13 0 -22.5 9.5t-9.5 22.5t9.5 22.5t22.5 9.5h128q13 0 22.5 -9.5t9.5 -22.5t-9.5 -22.5t-22.5 -9.5zM384 192h-96
q-13 0 -22.5 9.5t-9.5 22.5t9.5 22.5t22.5 9.5h96q13 0 22.5 -9.5t9.5 -22.5t-9.5 -22.5t-22.5 -9.5zM544 224q-13 0 -22.5 9.5t-9.5 22.5v96q0 13 9.5 22.5t22.5 9.5h96q13 0 22.5 -9.5t9.5 -22.5t-9.5 -22.5t-22.5 -9.5h-64v-64q0 -13 -9.5 -22.5t-22.5 -9.5zM928 224
q-13 0 -22.5 9.5t-9.5 22.5v64h-64q-13 0 -22.5 9.5t-9.5 22.5t9.5 22.5t22.5 9.5h96q13 0 22.5 -9.5t9.5 -22.5v-96q0 -13 -9.5 -22.5t-22.5 -9.5zM640 -64h-96q-13 0 -22.5 9.5t-9.5 22.5v96q0 13 9.5 22.5t22.5 9.5t22.5 -9.5t9.5 -22.5v-64h64q13 0 22.5 -9.5t9.5 -22.5
t-9.5 -22.5t-22.5 -9.5zM928 -64h-96q-13 0 -22.5 9.5t-9.5 22.5t9.5 22.5t22.5 9.5h64v64q0 13 9.5 22.5t22.5 9.5t22.5 -9.5t9.5 -22.5v-96q0 -13 -9.5 -22.5t-22.5 -9.5zM928 128h-384q-13 0 -22.5 9.5t-9.5 22.5t9.5 22.5t22.5 9.5h384q13 0 22.5 -9.5t9.5 -22.5
t-9.5 -22.5t-22.5 -9.5z" />
    <glyph glyph-name="weixiuzhong11" unicode="&#xe6b6;" 
d="M184 96q-16 0 -25 12q-46 58 -70 128q-25 71 -25 148q0 91 35 174q34 81 96 143t143 96q83 35 174 35q20 0 28.5 -18t-3.5 -34l-128 -160q-8 -10 -21.5 -11.5t-23.5 6.5t-11.5 21.5t6.5 23.5l81 101q-116 -22 -200 -105q-54 -55 -83 -125t-29 -147q0 -66 22 -127
q20 -59 59 -109q8 -11 6.5 -24t-11.5 -21q-9 -7 -20 -7zM512 -64q-20 0 -28.5 18t3.5 34l128 160q8 10 21.5 11.5t23.5 -6.5t11.5 -21.5t-6.5 -23.5l-81 -101q116 22 200 105q54 55 83 125t29 147q0 66 -22 127q-20 59 -59 109q-8 11 -6.5 24t12 21t23.5 6.5t21 -11.5
q46 -59 70 -128q25 -71 25 -148q0 -91 -35 -174q-34 -81 -96 -143t-143 -96q-83 -35 -174 -35zM351 127q-14 0 -23 9l-64 64q-9 9 -9 22.5t9 22.5l151 151v51q0 88 57 139q21 19 49.5 31t52 16.5t49.5 5.5t35.5 0.5t15.5 -1.5q20 -2 26.5 -21t-7.5 -33l-72 -72l19 -19l72 72
q14 14 33 7.5t21 -26.5q1 -6 1.5 -15.5t-0.5 -35.5t-5.5 -49t-16.5 -52t-31 -50q-51 -57 -139 -57h-51l-151 -151q-9 -9 -22 -9zM332 223l19 -19l137 137q9 10 23 10h64q59 0 91 35q24 28 33 76l-36 -37q-10 -9 -23 -9t-23 9l-64 64q-9 10 -9 23t9 23l37 37q-48 -9 -76 -34
q-35 -32 -35 -91v-64q0 -13 -10 -23z" />
    <glyph glyph-name="daiwanshan" unicode="&#xe6ba;" 
d="M288 0h-192q-13 0 -22.5 9.5t-9.5 22.5t9.5 22.5t22.5 9.5h192q13 0 22.5 -9.5t9.5 -22.5t-9.5 -22.5t-22.5 -9.5zM608 0h-192q-13 0 -22.5 9.5t-9.5 22.5t9.5 22.5t22.5 9.5h192q13 0 22.5 -9.5t9.5 -22.5t-9.5 -22.5t-22.5 -9.5zM928 0h-192q-13 0 -22.5 9.5t-9.5 22.5
t9.5 22.5t22.5 9.5h192q13 0 22.5 -9.5t9.5 -22.5t-9.5 -22.5t-22.5 -9.5zM149 128h-85v85q0 42 16.5 81.5t46.5 69.5l445 445q28 29 68 29t68 -29l37 -37q28 -28 28 -68t-28 -68l-445 -445q-30 -30 -69.5 -46.5t-81.5 -16.5zM128 192h21q62 0 106 44l445 445q9 10 9 23
t-9 22l-38 38q-9 9 -22 9t-23 -9l-445 -445q-44 -44 -44 -106v-21zM489 681l46 46l128 -128l-46 -46zM137 297l46 46l96 -96l-46 -46z" />
    <glyph glyph-name="allmoney" unicode="&#xe601;" 
d="M911 -10q-25 32 -45 92q-19 60 -19 108v163q0 68 -26 129t-73 108q-49 48 -108 72q-30 12 -59 18l96 95q9 10 9 24q0 15 -10 25t-24 10h-280q-14 0 -24 -10q-10 -11 -10 -25t10 -24l94 -95q-30 -6 -58 -18q-59 -24 -109 -72q-47 -48 -72 -109q-26 -62 -26 -128v-163
q0 -48 -20 -108q-19 -59 -43 -90q-9 -10 -9 -23q0 -14 10 -24.5t24 -10.5h745q13 0 22 8q11 9 12.5 23t-7.5 25zM445 329q7 -6 16 -6h15h15h42h15h16h2q24 -1 42 -18q19 -20 19 -45v-20v-2v-46q0 -26 -19 -44q-18 -19 -44 -19h-31v-18q0 -8 -6 -14t-14 -6q-9 0 -15.5 6
t-6.5 14v18h-30q-26 0 -45 19q-18 18 -18 44q0 9 6 15t15 6q8 0 14 -6t6 -15q0 -8 6 -15q7 -6 16 -6h15h15h42h26h5q9 0 15 6q6 7 6 15v68q0 9 -6 15q-6 7 -15 7h-5h-26h-42h-15h-15h-3q-24 0 -42 18q-19 19 -19 44v22v0v25v0v21q0 25 19 45q19 19 45 19h30v17q0 9 6.5 15
t15.5 6q8 0 14 -6t6 -15v-17h31q26 0 44 -19q19 -19 19 -45q0 -8 -6 -14t-15 -6t-15 6t-6 14q0 10 -6 15q-7 7 -15 7h-16h-15h-42h-15h-15q-9 0 -16 -7q-6 -6 -6 -15v-21v0v-25v0v-22q0 -8 6 -15z" />
    <glyph glyph-name="collection" unicode="&#xe602;" 
d="M485 -54l-383 382q-62 63 -82 139t5 155q23 69 77 122q55 53 125 76q80 25 160 4q68 -18 125 -66q57 48 125 66q80 21 160 -4q71 -23 124 -76q54 -53 78 -123v0q25 -77 5 -154t-83 -139l-1 -2l-381 -380q-11 -12 -27 -12t-27 12v0v0z" />
    <glyph glyph-name="linemoney" unicode="&#xe604;" 
d="M626 266q0 25 -18 45q-18 17 -42 18h-2h-16h-15h-42h-15h-15q-9 0 -16 6q-6 7 -6 15v21v1v25v0v21q0 9 6 15q7 7 16 7h15h15h42h15h16q8 0 15 -7q6 -5 6 -15q0 -8 6 -14t15 -6q8 0 14 6t6 14q0 26 -18 45q-19 18 -44 18h-31v18q0 9 -6 15t-15 6t-15 -6t-6 -15v-18h-30
q-26 0 -45 -18q-19 -20 -19 -45v-21v0v-25v-1v-21q0 -25 19 -44q18 -18 42 -18h3h15h15h42h26h5q8 0 15 -7q6 -7 6 -15v-68q0 -8 -6 -15q-6 -6 -15 -6h-5h-26h-42h-15h-15q-9 0 -16 6q-6 7 -6 15q0 9 -6 15t-15 6q-8 0 -14.5 -6t-6.5 -15q0 -26 19 -44q19 -19 45 -19h30v-18
q0 -8 6 -14.5t15 -6.5t15 6.5t6 14.5v18h31q26 0 44 19q18 18 18 44v46v2v20v0zM911 -10v0q-25 32 -45 92q-19 60 -19 108v163q0 68 -26 129t-73 108q-49 48 -108 72q-30 12 -59 18l96 95q9 10 9 24q0 15 -10 25t-24 10h-280q-14 0 -24 -10q-10 -11 -10 -25t10 -24l94 -95
q-30 -6 -58 -18q-59 -24 -109 -72q-47 -48 -72 -109q-26 -62 -26 -128v-163q0 -48 -20 -108q-19 -59 -43 -90q-9 -10 -9 -23q0 -14 10 -24.5t24 -10.5h745q13 0 22 8q11 9 12.5 23t-7.5 25v0zM568 765v0l-56 -57l-56 57h112v0zM201 4v0q14 31 22 57q24 70 24 129v163
q0 54 20 101q18 47 58 87q36 37 85 57q48 20 102 20h1q53 0 101 -20t86 -57q78 -79 78 -188v-163q0 -60 22 -129q12 -33 23 -57h-622v0z" />
    <glyph glyph-name="fsrebeta" unicode="&#xe605;" 
d="M512 439q-95 0 -175.5 -64t-127.5 -174t-47 -240q0 -12 1 -27h698q1 16 1 27q0 130 -47 240t-127.5 174t-175.5 64zM515 489q73 0 125 50.5t52 122t-52 122t-125 50.5t-124.5 -50.5t-51.5 -122t51.5 -122t124.5 -50.5zM693 173.5q0 -71.5 -51.5 -122t-125 -50.5
t-125 50.5t-51.5 122t51.5 122t125 50.5t125 -50.5t51.5 -122zM614 298l-70 -119h55v-26h-64v-37h64v-26h-64v-53h-33v53h-67v26h67v37h-67v26h57l-69 119h37q49 -89 59 -113h1q3 10 19 40l40 73h35z" />
    <glyph glyph-name="fsphone" unicode="&#xe607;" 
d="M409 591h177v84h45v-87q12 -5 20.5 -15.5t8.5 -22.5v-399q0 -16 -13.5 -28t-31.5 -12h-206q-18 0 -31.5 12t-13.5 28v399q0 16 13.5 28.5t31.5 12.5v0zM448 523q-6 0 -10.5 -5t-4.5 -12v-86q0 -7 4.5 -12t10.5 -5h128q6 0 10.5 5t4.5 12v86q0 7 -4.5 12t-10.5 5h-128v0z
M562 190q-3 0 -3 -5v-21q0 -5 3 -5h33q4 0 4 5v21q0 5 -4 5h-33v0zM495 190q-4 0 -4 -5v-21q0 -5 4 -5h33q3 0 3 5v21q0 5 -3 5h-33v0zM429 190q-4 0 -4 -5v-21q0 -5 4 -5h33q3 0 3 5v21q0 5 -3 5h-33v0zM562 246q-3 0 -3 -5v-21q0 -5 3 -5h33q4 0 4 5v21q0 5 -4 5h-33v0z
M495 246q-4 0 -4 -5v-21q0 -5 4 -5h33q3 0 3 5v21q0 5 -3 5h-33v0zM429 246q-4 0 -4 -5v-21q0 -5 4 -5h33q3 0 3 5v21q0 5 -3 5h-33v0zM562 302q-3 0 -3 -4v-22q0 -5 3 -5h33q4 0 4 5v22q0 4 -4 4h-33v0zM495 302q-4 0 -4 -4v-22q0 -5 4 -5h33q3 0 3 5v22q0 4 -3 4h-33v0z
M429 302q-4 0 -4 -4v-22q0 -5 4 -5h33q3 0 3 5v22q0 4 -3 4h-33v0zM562 358q-3 0 -3 -4v-22q0 -4 3 -4h33q4 0 4 4v22q0 4 -4 4h-33v0zM495 358q-4 0 -4 -4v-22q0 -4 4 -4h33q3 0 3 4v22q0 4 -3 4h-33v0zM429 358q-4 0 -4 -4v-22q0 -4 4 -4h33q3 0 3 4v22q0 4 -3 4h-33z
M511 818q89 0 168.5 -33t139.5 -93q61 -60 94.5 -140t33.5 -168q0 -89 -33.5 -168.5t-94.5 -138.5q-60 -61 -139.5 -94t-168.5 -33q-88 0 -167 33.5t-139 93.5q-61 59 -94.5 138.5t-33.5 168.5q0 88 33.5 168t94.5 140q60 59 139 92.5t167 33.5v0zM784 655q-53 54 -123.5 84
t-149.5 30q-77 0 -147.5 -30t-123.5 -84q-53 -53 -82.5 -123t-29.5 -148t29.5 -148.5t82.5 -122.5q53 -54 123.5 -84t147.5 -30q79 0 149.5 30t123.5 84q53 52 82.5 122.5t29.5 148.5t-29.5 148t-82.5 123z" />
    <glyph glyph-name="fstel" unicode="&#xe609;" 
d="M176 73h33h16h576h14h35q21 5 26 37v11q0 12 -6 20q-10 46 -33 113q-13 35 -42 70l-14 14q-4 4 -10 9.5t-10 10t-8 8.5q-25 40 -38 56q-33 56 -33 130l2 33q17 3 29 0l2 -2q18 -14 20 -34q0 -10 -2 -15q0 -3 -5 -11q-4 -5 -8 -13q-4 -12 -1 -20q-6 -26 47 -51
q56 -22 126 -29q24 -3 37 12q3 4 3 6q2 0 2 2q13 13 13 55q-8 103 -106 155q-107 55 -327 55h-2q-220 0 -327 -55q-100 -53 -108 -155q0 -42 13 -55l2 -2q3 -4 3 -6q13 -15 39 -12q72 7 124 29q52 24 49 51q0 15 -3 20q0 2 -2.5 6.5t-3.5 6.5t-2.5 4.5t-2.5 4t-2 2.5
q-3 7 0 15q2 18 18 34l2 2q13 3 29 0l2 -33q3 -68 -31 -130q-23 -29 -40 -56q-4 -5 -12.5 -13.5t-13.5 -14.5l-16 -14q-25 -30 -41 -70q-8 -17 -34 -113q-4 -6 -4 -20q-2 -6 -2 -11q5 -31 28 -37v0zM400 609h2q67 -9 110 -9v0q46 0 110 9h3v-68q0 -21 -18 -29q-6 -6 -26 -9
v0v0h-14h-2h-104h-2h-15v0v0q-19 3 -27 9q-17 8 -17 29v68v0zM492 113q-76 9 -119 57q-47 53 -47 126q0 75 47 128q43 48 119 57v0h2v0h2v0h3v0h2v0h4v0h2v0h3v0h2v0h4v0h1v0h4v0h2v0h4v0h1v0h4v0h2v0q73 -8 119 -57q45 -51 45 -128q0 -75 -45 -126q-46 -48 -119 -57v0h-2v0
h-4v0h-1v0h-4v0h-2v0h-4v0h-1v0h-4v0h-2v0h-3v0h-2v0h-4v0h-2v0h-3v0h-2v0h-2v0zM617 297q0 -44 -31 -75.5t-75.5 -31.5t-75.5 31.5t-31 75.5t31 75.5t75.5 31.5t75.5 -31.5t31 -75.5z" />
    <glyph glyph-name="yidonghulianwang" unicode="&#xe6c6;" 
d="M800 896h-576q-26 0 -45 -19t-19 -45v-896q0 -25 33 -44.5t63 -19.5h544q26 0 45 19t19 45v896q0 26 -19 45t-45 19zM224 848h576q7 0 11.5 -4.5t4.5 -11.5v-744h-608v744q0 7 4.5 11.5t11.5 4.5zM800 -80h-544q-12 0 -30 8q-12 6 -18 13v99h608v-104q0 -7 -4.5 -11.5
t-11.5 -4.5zM512 -32zM480 -32q0 -13 9.5 -22.5t22.5 -9.5t22.5 9.5t9.5 22.5t-9.5 22.5t-22.5 9.5t-22.5 -9.5t-9.5 -22.5zM512 320zM480 320q0 -13 9.5 -22.5t22.5 -9.5t22.5 9.5t9.5 22.5t-9.5 22.5t-22.5 9.5t-22.5 -9.5t-9.5 -22.5zM587 432q-36 16 -75 16
q-38 0 -72 -15q-15 -6 -15 -22q0 -8 5 -15h1q7 -9 18 -9q5 0 10 2q25 11 53 11q29 0 55 -12q5 -2 10 -2q11 0 18 9v0q6 7 6 15q0 16 -14 22zM266 533q8 -8 19 -8q7 0 13 4q40 26 103 44.5t111 18.5q49 0 113.5 -19.5t105.5 -47.5q6 -4 13 -4q11 0 18 9h1q5 7 5 15
q0 13 -10 20q-46 31 -118 53t-128 22q-54 0 -124.5 -21t-115.5 -50q-11 -8 -11 -20q0 -9 5 -15v-1zM674 499q-31 19 -78.5 32t-83.5 13q-35 0 -81.5 -12.5t-76.5 -30.5q-12 -7 -12 -20q0 -9 6 -15v-1q7 -8 18 -8q7 0 13 3q25 15 64 25.5t69 10.5t70 -11t66 -27q6 -4 13 -4
q11 0 18 9v0q6 7 6 16q0 13 -11 20z" />
    <glyph glyph-name="zhinengsuanfa" unicode="&#xe6c8;" 
d="M512.5 848q34.5 0 68.5 -29q38 -32 69 -94q33 -66 51 -152q19 -90 19 -189t-19 -189q-18 -86 -51 -151q-31 -62 -69 -95q-34 -29 -68.5 -29t-69.5 29q-38 32 -69 95q-33 65 -51 151q-19 90 -19 189t19 189q18 86 51 152q31 62 69 94q35 29 69.5 29zM512.5 896
q-69.5 0 -128.5 -68.5t-93.5 -186.5t-34.5 -257t34.5 -257t93.5 -186.5t128.5 -68.5t128.5 68.5t93 186.5t34 257t-34 257t-93 186.5t-128.5 68.5zM512.5 848q34.5 0 68.5 -29q38 -32 69 -94q33 -66 51 -152q19 -90 19 -189t-19 -189q-18 -86 -51 -151q-31 -62 -69 -95
q-34 -29 -68.5 -29t-69.5 29q-38 32 -69 95q-33 65 -51 151q-19 90 -19 189t19 189q18 86 51 152q31 62 69 94q35 29 69.5 29zM512.5 896q-69.5 0 -128.5 -68.5t-93.5 -186.5t-34.5 -257t34.5 -257t93.5 -186.5t128.5 -68.5t128.5 68.5t93 186.5t34 257t-34 257t-93 186.5
t-128.5 68.5zM261 675q78 0 171 -29t184 -82q86 -49 155 -111q65 -59 105 -120q38 -58 47 -107q8 -44 -9 -74q-16 -27 -51 -42q-40 -17 -99 -17q-79 0 -172 29t-184 82q-86 49 -154 111q-66 59 -106 120q-38 58 -47 107q-8 44 9 74q16 27 52 42q40 17 99 17v0zM261 723
q-144 0 -192 -83q-20 -38 -18 -83t28 -97t68 -103.5t103.5 -102t133.5 -92.5q99 -57 198 -87t182 -30q144 0 191 83q20 38 18.5 83t-28 97.5t-68.5 103.5t-103.5 101.5t-133.5 92.5q-99 57 -198 87t-181 30v0zM764 675q59 0 99 -17q36 -15 51 -42q17 -30 9 -74
q-9 -49 -47 -107q-40 -61 -105 -120q-69 -61 -155 -111q-91 -53 -184 -82t-171 -29q-59 0 -99 17q-36 15 -52 42q-17 30 -9 74q9 50 47 107q40 61 106 120q68 62 154 111q91 53 184 82t172 29v0zM764 723q-83 0 -182 -30t-198 -87q-72 -42 -133.5 -92.5t-103.5 -101.5
t-68 -103.5t-28 -97.5t18 -83q47 -83 192 -83q83 0 181.5 30t197.5 87q72 42 133.5 92.5t103.5 102t68.5 103.5t28 97t-18.5 83q-47 83 -191 83zM480 360h-128q-10 0 -17 7t-7 17t7 17t17 7h128q10 0 17 -7t7 -17t-7 -17t-17 -7zM416 296q-10 0 -17 7t-7 17v128q0 10 7 17
t17 7t17 -7t7 -17v-128q0 -10 -7 -17t-17 -7zM672 360h-96q-10 0 -17 7t-7 17t7 17t17 7h96q10 0 17 -7t7 -17t-7 -17t-17 -7z" />
    <glyph glyph-name="quanshengmingzhouqiguanli" unicode="&#xe6cb;" 
d="M497 139q-3 0 -6 1l-83 22q-6 2 -11.5 8t-6.5 12v5q-4 27 -26 49t-49 26h-5q-6 1 -12 6.5t-8 11.5l-22 83q-1 3 -1 6q0 12 10 19l3 3q14 11 24 31t10 38t-6 34l-2 4q-2 4 -2 9q0 10 7 17l61 61q7 7 17 7q5 0 9 -2l4 -2q16 -6 34 -6q17 0 37.5 10t31.5 24l3 3q7 10 19 10
q3 0 6 -1l83 -22q6 -2 11.5 -8t6.5 -12v-5q4 -27 26 -49t49 -26h5q6 -1 12 -6.5t8 -11.5l22 -83q1 -3 1 -6q0 -12 -10 -19l-3 -3q-14 -11 -24 -31t-10 -38t6 -34l2 -4q2 -4 2 -9q0 -10 -7 -17l-61 -61q-7 -7 -17 -7q-5 0 -9 2l-4 2q-16 6 -34 6q-17 0 -37.5 -10t-31.5 -24
l-3 -3q-7 -10 -19 -10v0zM435 205l54 -15q16 19 45.5 31.5t53.5 12.5q21 0 41 -6l39 39q-6 20 -6 41q0 24 12.5 53.5t31.5 45.5l-15 54q-34 7 -64.5 37.5t-37.5 64.5l-54 15q-16 -19 -45.5 -31.5t-53.5 -12.5q-21 0 -41 6l-39 -39q6 -20 6 -41q0 -24 -12.5 -53.5
t-31.5 -45.5l15 -54q34 -7 64.5 -37.5t37.5 -64.5v0zM512 -120q-102 0 -195.5 40t-161 107.5t-107.5 161t-40 195.5q0 91 41.5 185.5t112 169t154.5 109.5q39 17 96.5 28.5t99.5 11.5q60 0 139 -22.5t130 -55.5q11 -7 11 -20q0 -7 -5 -13.5t-11 -9.5l-160 -54q-4 -1 -8 -1
q-10 0 -17 7t-7 17q0 7 5 13.5t11 9.5l109 36q-39 19 -97 32t-101 13q-92 0 -176.5 -36t-146 -97t-97.5 -145.5t-36 -177.5t36 -177.5t97.5 -145.5t146 -97.5t177 -36.5t177 36.5t146 97.5t97.5 145.5t36 177.5v0q0 152 -91 274q-5 6 -5 14q0 10 7 17t17 7q12 0 19 -10
q42 -55 71.5 -144t29.5 -158q0 -103 -40 -196t-107.5 -160.5t-160.5 -107.5t-196 -40v0zM512 296q-36 0 -62 26t-26 62t26 62t62 26t62 -26t26 -62t-26 -62t-62 -26zM512 424q-17 0 -28.5 -11.5t-11.5 -28.5t11.5 -28.5t28.5 -11.5t28.5 11.5t11.5 28.5t-11.5 28.5
t-28.5 11.5z" />
    <glyph glyph-name="jiangdichengben" unicode="&#xe6cc;" 
d="M946 393q-32 36 -89 64.5t-105 33.5l-38 3l26 30q9 16 12 52l1 2l1 110q0 22 -12 44v0l-2 7v1q5 13 5 23q0 31 -31 56q-30 24 -85 42q-105 35 -251 35t-252 -35q-55 -17 -84 -42q-32 -25 -32 -56q0 -13 5 -22l1 -2l-2 -7h-1q-11 -22 -11 -44v-110q0 -28 18 -52l2 -2
l-7 -11q-13 -25 -13 -46v-110q0 -24 17 -52l1 -3l-7 -9q-13 -24 -13 -45v-110q0 -34 28 -65.5t80 -55.5q109 -50 268 -50q41 0 126 9h2l1 -1q17 -18 45.5 -38t51.5 -30t58 -17t61 -7v0q125 0 214 89t89 215v4q0 48 -23 107t-55 95zM149 812q95 29 231 29q134 0 225.5 -27.5
t91.5 -60.5q0 -32 -87 -59q-95 -29 -230 -29t-226.5 27.5t-91.5 60.5q0 32 87 59zM55 680l6 -6q41 -38 131 -59q85 -19 186 -19t185 19q90 21 131 59l7 6v-101q0 -25 -24 -49.5t-67 -44.5q-96 -43 -232 -43t-232 43q-44 20 -67.5 44.5t-23.5 49.5v101zM488 378l-6 -8
q-15 -21 -29.5 -54t-20.5 -58q0 -3 -1 -9q-4 -17 -4 -25v-4h-4q-6 0 -19 -1t-19 -1q-136 0 -233 43q-44 20 -68 44.5t-24 49.5l-2 115l7 -7q44 -43 128 -68q86 -25 190 -25q33 0 95 7zM474 32q-45 -5 -90 -5h-3q-137 0 -234 36q-44 16 -68 37t-24 43v94l6 -5q45 -36 131 -57
t189 -21q26 0 40 2h4v-3q8 -48 31 -87v0q7 -13 21 -27l5 -6zM899.5 11.5q-72.5 -73.5 -176.5 -73.5q-108 0 -183 80q-10 10 -28 35v0q-16 26 -27.5 65.5t-11.5 69.5v1v1q0 15 4 43q1 13 8 37l1 1q20 61 79.5 110t123.5 57q11 2 32 2h9q100 -4 170 -77q30 -30 50.5 -81
t20.5 -93v0q1 -104 -71.5 -177.5zM846 211q-6 5 -14 5q-12 0 -19 -10l-53 -70v216q0 10 -7 17t-17 7t-17 -7t-7 -17v-216l-53 70q-7 10 -19 10q-10 0 -17 -7t-7 -17q0 -8 5 -14l96 -128q7 -10 19 -10t19 10l96 128q5 6 5 14q0 12 -10 19z" />
    <glyph glyph-name="android" unicode="&#xe62a;" 
d="M256 128q0 -19 11.5 -31t31.5 -12h42v-149q0 -26 19.5 -45t45 -19t44.5 19t19 45v149h86v-149q0 -26 19 -45t44.5 -19t45 19t19.5 45v149h42q20 0 31.5 12t11.5 31v427h-512v-427zM149.5 555q-25.5 0 -45 -19.5t-19.5 -44.5v-299q0 -26 19.5 -45t45 -19t44.5 19t19 45
v299q0 25 -19 44.5t-44.5 19.5zM874.5 555q-25.5 0 -44.5 -19.5t-19 -44.5v-299q0 -26 19 -45t44.5 -19t45 19t19.5 45v299q0 25 -19.5 44.5t-45 19.5zM661 802l56 56q6 6 6 14.5t-6.5 15t-15 6.5t-14.5 -7l-64 -64q-42 30 -111 30q-64 0 -115 -25l-60 64q-6 3 -17 3t-17 -3
q-3 -7 -3 -17.5t3 -16.5l55 -56q-46 -37 -74 -90t-28 -115h512q0 63 -29 118t-78 87zM427 683h-43v42h43v-42zM640 683h-43v42h43v-42z" />
    <glyph glyph-name="bluetooth-connected" unicode="&#xe630;" 
d="M299 384l-86 85l-85 -85l85 -85zM755 567l-243 244h-43v-325l-196 197l-60 -60l239 -239l-239 -239l60 -60l196 197v-325h43l243 244l-183 183zM555 649l81 -82l-81 -81v163zM636 201l-81 -82v163zM811 469l-86 -85l86 -85l85 85z" />
    <glyph glyph-name="bluetooth-searching" unicode="&#xe631;" 
d="M606 384l98 -98q17 40 17 98q0 38 -17 98zM832 610l-51 -55q20 -40 31 -84t11 -87t-11 -87t-31 -84l51 -51q64 96 64 226q0 126 -64 222zM670 567l-243 244h-43v-325l-196 197l-60 -60l239 -239l-239 -239l60 -60l196 197v-325h43l243 244l-184 183zM469 649l81 -82
l-81 -81v163zM550 201l-81 -82v163z" />
    <glyph glyph-name="accessory" unicode="&#xe621;" 
d="M768 639l-47 48l-478 -478q-30 -30 -30 -71.5t29.5 -71t71.5 -29.5t71 29l525 526q50 49 50 118.5t-49.5 118.5t-119 49t-118.5 -49l-539 -539l-1 -1q-69 -69 -69 -165.5t68.5 -165.5t165.5 -69t166 69l1 1v0l444 444l-47 48l-445 -445q-49 -52 -121 -52q-69 0 -118 49
t-49 118q0 72 52 121v0l540 540q29 27 69 27q41 0 70.5 -29.5t29.5 -71.5q0 -40 -27 -69l-525 -525q-10 -10 -24 -10t-24 10t-10 24t10 23z" />
    <glyph glyph-name="dingwei" unicode="&#xe622;" 
d="M973 401h-51q-5 102 -59 191t-143 143t-191 59v51q0 7 -5 12t-12 5t-12 -5t-5 -12v-51q-102 -5 -191 -59t-143 -143t-59 -191h-51q-7 0 -12 -5t-5 -12t5 -12t12 -5h51q5 -102 59 -191t143 -143t191 -59v-51q0 -7 5 -12t12 -5t12 5t5 12v51q102 5 191 59t143 143t59 191
h51q7 0 12 5t5 12t-5 12t-12 5zM836 367h51q-4 -93 -53.5 -174t-130.5 -130.5t-174 -53.5v51q0 7 -5 12t-12 5t-12 -5t-5 -12v-51q-93 4 -174 53.5t-130.5 130.5t-53.5 174h51q7 0 12 5t5 12t-5 12t-12 5h-51q4 93 53.5 174t130.5 130.5t174 53.5v-51q0 -7 5 -12t12 -5t12 5
t5 12v51q93 -4 174 -53.5t130.5 -130.5t53.5 -174h-51q-7 0 -12 -5t-5 -12t5 -12t12 -5zM512 452q-28 0 -48 -20t-20 -48t20 -48t48 -20t48 20t20 48t-20 48t-48 20z" />
    <glyph glyph-name="dituzhaofang" unicode="&#xe624;" 
d="M512 113l-17 24q-10 13 -27 38.5t-53 85.5t-64.5 116.5t-51 124t-22.5 117.5q0 97 69 165.5t166 68.5t166 -68.5t69 -165.5q0 -50 -22.5 -117.5t-51 -124t-64.5 -116.5t-53 -85.5t-27 -38.5zM512 811q-79 0 -135.5 -56.5t-56.5 -135.5q0 -47 21.5 -111.5t56.5 -129.5
t61.5 -108.5t52.5 -82.5q26 39 52.5 83t61 109t56.5 129t22 111q0 79 -56.5 135.5t-135.5 56.5zM512 512v0q-44 0 -75.5 31.5t-31.5 75.5t31.5 75t75.5 31t75.5 -31t31.5 -75t-31.5 -75.5t-75.5 -31.5zM512 683q-26 0 -45 -19t-19 -45.5t19 -45t45 -18.5t45 18.5t19 45
t-19 45.5t-45 19zM512 -108l-259 87l-198 -18q-2 -1 -4 -1q-18 0 -30.5 12.5t-12.5 30.5q0 6 2 12l124 412h241l6 -12q57 -119 131 -228q74 109 131 228l6 12h241l124 -412q2 -6 2 -12q0 -18 -12.5 -30.5t-30.5 -12.5h-4l-198 19zM259 21l253 -85l253 85l208 -18l-114 381
h-183q-27 -53 -70 -125.5t-77 -121.5l-17 -24l-17 24q-34 49 -77 121.5t-70 125.5h-183l-114 -381z" />
    <glyph glyph-name="fangzhuanjia" unicode="&#xe628;" 
d="M107 169h125l1 -1q7 0 8 7q3 8 7 18t8.5 22t7.5 19h-142v29h146h1q7 0 9 7q8 21 17 42q2 5 7 6h61l-21 -55h149v-28h-151h-2q-8 0 -9 -8q-4 -11 -12 -32t-9 -25h199v-33h-203h-2q-8 0 -10 -8q-8 -24 -21 -55h189l-46 -107h109q7 0 13 3l138 61q8 3 9 11q1 12 13 15
q5 2 81 35l7 -25l-74 -33q-23 -10 -24 -10q-11 -3 -11 -14v-3l112 49q3 -11 5 -21q0 -5 -5 -7q-18 -8 -53.5 -24t-53.5 -23l-12 -6v8l-5 -1l-126 -58q-6 -3 -12 -3h-408v45h189h1q9 0 11 8q2 4 27 59l3 8h-157l36 96h-111q-2 -1 -4.5 -1t-4.5 1v32zM274 366v448h175v39h123
v-39h172v-82q1 -2 1 -4q0 -20 -14.5 -34.5t-34.5 -14.5h-4h-302v-313h-116zM390 719h227q2 -1 4 -1t4 1q11 6 11 10q1 0 0.5 22l-0.5 22h-246v-54zM413 366l28 207h-36v39h113v46h122v-45h113v-39h-200l-6 -41h197v-117v-3q0 -20 -14 -34t-35 -14h-1h-111v39h32q19 0 19 19
v72h-85q-8 0 -9 -9q-2 -16 -16 -115q0 -6 -6 -6h-103q-1 0 -2 1zM699 99l69 30l7 -26l-12 -6q-31 -15 -63 -26t-87.5 -37t-70.5 -32l-5 -2v43q0 2 7 5q26 11 75.5 33t73.5 33q11 3 13 15q1 5 6 24l-175 -80v13.5v13.5q-3 19 17 27q6 2 96 43q4 1 7 4h-113v33h150v0q6 0 10 4
q15 12 31 21q2 1 3 1t2 -1q15 -8 28 -18q6 -6 15 -6h4h139v-32h-213v-13q5 3 11 4h15h15q4 -1 6 -5q3 -10 5 -19l-26 -15q-27 -12 -29 -13q-7 -2 -8.5 -5t-2.5 -11zM633 256v-33h-97v65h149v32h101v-31h149v-66h-99v33h-203zM933 -70h-82q-3 0 -6 6q-36 115 -39 124
q-4 11 -4 22.5t4 21.5q3 7 6.5 20.5t5.5 17.5q0 2 2 3.5t3 1.5h83q-4 -16 -10 -32t-6 -32.5t6 -31.5q2 -5 35 -112q1 -4 2 -9zM740 -107l-43 41l107 47q4 -8 4 -11.5t-6 -10.5l-59 -61q-2 -2 -3 -5zM796 20l5 -24v0q0 -3 -2 -5q-53 -24 -107 -47q-1 -1 -3 -1t-3 1
q-4 4 -20 18z" />
    <glyph glyph-name="xialasanjiao" unicode="&#xe62e;" 
d="M213 555h598l-299 -384z" />
    <glyph glyph-name="xiaojisuanqi" unicode="&#xe62f;" 
d="M402 347h-256q-30 0 -51.5 -21t-21.5 -52v-256q0 -30 21.5 -51.5t51.5 -21.5h256q31 0 52 21.5t21 51.5v256q0 31 -21 52t-52 21zM439 18q0 -15 -11 -25.5t-26 -10.5h-256q-15 0 -25.5 10.5t-10.5 25.5v256q0 15 10.5 26t25.5 11h256v0q15 0 26 -11t11 -26v-256zM293 750
h-37v-110h-110v-37h110v-109h37v109h109v37h-109v110zM878 823h-256v0q-31 0 -52 -21.5t-21 -51.5v-256q0 -31 21 -52t52 -21h256v0q30 0 51.5 21t21.5 52v256q0 30 -21.5 51.5t-51.5 21.5zM914 494q0 -15 -10.5 -26t-25.5 -11h-256q-15 0 -26 11t-11 26v256q0 15 11 25.5
t26 10.5h256q15 0 25.5 -10.5t10.5 -25.5v-256zM622 603h256v37h-256v-37zM731 18h37v73h-37v-73zM622 128h256v37h-256v-37zM878 347h-256v0q-31 0 -52 -21t-21 -52v-256q0 -30 21 -51.5t52 -21.5h256v0q30 0 51.5 21.5t21.5 51.5v256q0 31 -21.5 52t-51.5 21zM914 18
q0 -15 -10.5 -25.5t-25.5 -10.5h-256q-15 0 -26 10.5t-11 25.5v256q0 15 11 26t26 11h256q15 0 25.5 -11t10.5 -26v-256zM402 823h-256q-30 0 -51.5 -21.5t-21.5 -51.5v-256q0 -31 21.5 -52t51.5 -21h256q31 0 52 21t21 52v256q0 30 -21 51.5t-52 21.5zM439 494
q0 -15 -11 -26t-26 -11h-256q-15 0 -25.5 11t-10.5 26v256q0 15 10.5 25.5t25.5 10.5h256v0q15 0 26 -10.5t11 -25.5v-256zM768 274h-37v-73h37v73zM352 250l-78 -78l-77 78l-26 -26l77 -78l-77 -77l26 -26l77 77l78 -77l26 26l-78 77l78 78z" />
    <glyph glyph-name="tupian" unicode="&#xe632;" 
d="M841 823h-658q-46 0 -78 -32t-32 -78v-658q0 -46 32 -78t78 -32h658v0q46 0 78 32t32 78v658q0 46 -32 78t-78 32zM110 713q0 30 21.5 51.5t51.5 21.5h658v0q30 0 51.5 -21.5t21.5 -51.5v-402l-146 179l-219 -293l-183 183l-250 -355q-6 14 -6 30v658zM841 -18h-658
q-24 0 -43 14l229 325l182 -182l220 292l146 -177v-199v0q0 -30 -21.5 -51.5t-51.5 -21.5h-3zM293 567zM219 567q0 -30 21.5 -51.5t52 -21.5t52 21.5t21.5 51.5t-21.5 51.5t-52 21.5t-52 -21.5t-21.5 -51.5z" />
    <glyph glyph-name="baobiaozhongxin" unicode="&#xe61f;" 
d="M727 712h-451q-43 0 -74 -30.5t-31 -74.5v-452q0 -44 31 -74.5t74 -30.5h451q44 0 74.5 30.5t30.5 74.5v452q0 44 -30.5 74.5t-74.5 30.5zM786 159q0 -26 -18.5 -44t-44.5 -18h-443q-26 0 -44.5 18t-18.5 44v444q0 26 18.5 44t44.5 18h443q26 0 44.5 -18t18.5 -44v-444z
M328 539h64v-63h-64v63zM455 539h220v-63h-220v63zM328 413h64v-64h-64v64zM455 413h220v-64h-220v64zM328 287h64v-64h-64v64zM455 287h220v-64h-220v64z" />
    <glyph glyph-name="bianji" unicode="&#xe620;" 
d="M368 347q-1 -1 -1 -2l-36 -132q-1 -2 -1 -5q0 -10 6.5 -16.5t15.5 -6.5q4 0 6 1l131 36v-1q3 0 4 2l349 349q16 16 16 40q0 27 -20 47l-33 33q-21 21 -48 21q-24 0 -40 -16l-349 -349v-0.5v-0.5zM808 606l-35 -35l-56 57l34 35q4 4 11 3.5t11 -5.5l33 -33q6 -6 6 -13
q0 -5 -4 -9zM430 341l252 252l56 -57l-251 -251zM384 239l18 67l49 -48zM830 468q-10 0 -17 -7t-7 -17v-325q0 -13 -9 -22t-22 -9h-550q-13 0 -22 9t-9 22v530q0 13 9 22t22 9h354q10 0 17 7t7 17t-7 17t-17 7h-358q-31 0 -53 -22t-22 -53v-538q0 -31 22 -53t53 -22h558
q31 0 53 22t22 53v329q0 10 -7 17t-17 7z" />
    <glyph glyph-name="canchulei-default" unicode="&#xe625;" 
d="M511.5 -109q-100.5 0 -192.5 39q-89 37 -157.5 105.5t-105.5 157.5q-39 91 -39 192t39 192q37 89 105.5 157.5t157.5 105.5q92 39 192.5 39t192.5 -39q88 -37 156.5 -105.5t106.5 -157.5q39 -91 39 -192t-39 -192q-38 -89 -106.5 -157.5t-156.5 -105.5
q-92 -39 -192.5 -39zM511.5 869q-98.5 0 -188 -38.5t-154.5 -103t-103.5 -154.5t-38.5 -188t38.5 -188t103.5 -154.5t154.5 -103t188 -38.5t188 38.5t154.5 103t103.5 154.5t38.5 188t-38.5 188t-103.5 154.5t-154.5 103t-188 38.5zM585 637h-13q-8 -482 -8 -498
q0 -32 17 -32q16 -1 22 24q3 8 3 18q0 11 -2.5 62.5t-4.5 98l-2 46.5q27 4 46 25.5t19 49.5v128q0 33 -22.5 55.5t-54.5 22.5zM479 624l-5 -112h-13l-4 112h-14l-5 -110h-15l-5 112h-13l-4 -112h-14l-4 112h-13q-8 -65 -8 -86q0 -11 2 -24t7 -31.5t17.5 -32.5t31.5 -17
l-12 -277q0 -20 6.5 -34.5t15.5 -14.5t15.5 14.5t6.5 34.5l-10 276q57 9 57 105l-5 85h-15z" />
    <glyph glyph-name="daochu" unicode="&#xe633;" 
d="M516 793q16 0 27 -10l186 -187q11 -10 11 -26t-11 -26.5t-27 -10.5q-15 0 -26 11l-122 122v-431q0 -15 -11 -26t-26.5 -11t-26.5 11t-11 26v431l-122 -122q-12 -11 -27 -11t-26 11t-11 26t11 27l186 186q11 10 26 10v0zM884 272q16 0 26.5 -10.5t10.5 -26.5v-149
q0 -46 -32 -78q-33 -33 -78 -33h-597q-45 0 -79 32q-32 34 -32 79v149q0 16 10.5 26.5t26 10.5t26.5 -10.5t11 -26.5v-149q0 -15 11 -26t26 -11h597q15 0 25.5 11t10.5 26v149q0 16 11 26.5t26 10.5v0z" />
    <glyph glyph-name="houtaiweihu" unicode="&#xe634;" 
d="M582 634q-14 -30 -14 -65q0 -63 44.5 -107.5t107.5 -44.5q35 0 65 15q-42 -42 -102 -42q-14 0 -29 3q-26 5 -44 -13l-277 -277q-1 33 -24 56t-55 24l276 276q19 19 13 44q-7 36 3 70.5t36 60.5v0zM631 217l152 -152q6 -6 6 -15t-6 -15.5t-15.5 -6.5t-15.5 6l-152 152z
M664 721h-11q-80 -13 -126.5 -80.5t-29.5 -147.5l-320 -319q-30 -31 -30 -74t30 -73q31 -31 74 -31t73 31l320 319q80 -17 147.5 29.5t79.5 127.5q3 18 -3 29.5t-17 11.5q-10 0 -20 -10l-38 -38q-30 -30 -73.5 -30t-73.5 30t-30 73.5t30 73.5l38 38q15 14 8.5 27.5
t-28.5 12.5zM226 76q-16 16 -7 37.5t32 21.5t32 -21.5t-7 -37.5q-11 -10 -25 -10t-25 10zM177 689l-49 -49l61 -86l52 -27l120 -120l49 49l-120 120l-27 52zM619 272l-74 -73q-5 -5 -5 -12.5t5 -12.5l174 -173q20 -20 48.5 -20.5t49 20t20.5 49.5t-20 49l-174 173
q-12 13 -24 0z" />
    <glyph glyph-name="shanchu" unicode="&#xe635;" 
d="M722 563l1 -441q0 -36 -33 -36l-336 1q-34 0 -34 34v442h-52v-442q0 -35 24.5 -59.5t59.5 -24.5h336q35 0 59.5 24.5t24.5 59.5v442h-50zM390 468v-313q0 -3 1 -6h46q1 3 1 6v313h-48zM601 467v-312q0 -2 1 -5q24 1 47 1v4v312h-48zM859 647h-186v53q1 53 -69 53h-168
q-68 0 -68 -52v-54h-190v-51h681v51zM625 647h-210v37q0 9 5.5 15.5t14.5 6.5l168 -1q9 0 15.5 -5.5t6.5 -14.5v-38zM498 467v-312v-5q23 1 46 1q1 2 1 4v312h-47z" />
    <glyph glyph-name="fs-balance" unicode="&#xe60a;" 
d="M229 -56q-15 0 -25.5 10.5t-10.5 25.5t10.5 25t25.5 10h83v40q0 14 9 25l2 2q11 11 27 11h126v584q-21 -5 -34 -11q-16 -7 -31 -17q-17 -12 -26 -22q-32 -31 -72 -47q-23 -10 -42 -14q-12 -2 -17 -3l92 -280q8 -3 13 -9q11 -10 11 -25t-11 -25q-26 -26 -62 -41t-72 -15
q-37 0 -73 15h-2q-35 16 -60 41q-10 10 -10 25t10 25q6 6 14 9l92 281q-2 0 -6.5 0.5t-7.5 1.5q-20 5 -42 14q-20 7 -38 20q-17 10 -34 27q-6 6 -6 15t6 15q7 7 16 7t15 -7q13 -12 26 -22q16 -10 31 -17q16 -6 34 -10q17 -4 37 -4q18 0 36 4t34 10q31 13 57 39l1 1
q16 16 33 27q15 10 37 20q21 9 43 13l8 2v68q0 14 10.5 25t25.5 11t25.5 -11t10.5 -25v-68l8 -2q22 -4 43 -13q20 -8 38 -20q19 -13 33 -28q15 -14 27 -22q16 -10 30 -17q16 -6 35 -10q17 -4 35 -4q20 0 36 4q18 4 35 10q31 13 57 39q6 7 15 7t16 -7q6 -6 6 -15t-6 -15
q-32 -31 -72 -47q-22 -10 -42 -14q-3 -1 -7.5 -1.5t-6.5 -0.5l92 -281q8 -3 14 -9q10 -10 10 -25t-10 -25q-27 -27 -62 -41q-36 -15 -73 -15q-36 0 -72 15h-2q-35 15 -60 41q-10 10 -10 25t10 25q5 6 14 9l92 280q-4 1 -18 3q-21 5 -42 14q-20 7 -38 20q-19 13 -33 27
q-13 13 -27 22q-15 10 -31 17q-13 6 -34 11v-584h126q17 0 27 -11q11 -11 11 -27v-40h83q15 0 25.5 -10t10.5 -25t-10.5 -25.5t-25.5 -10.5h-566v0zM879 271l-80 243l-79 -243q14 -13 32 -22h2q22 -9 45 -9q24 0 46 9v0q21 9 34 22zM305 271l-80 243l-80 -243q14 -13 33 -22
h1q22 -9 46 -9t45 9v0q21 8 35 22zM354 15h316v35h-316v-35z" />
    <glyph glyph-name="fs-dubbledown" unicode="&#xe636;" 
d="M475 490l-273 344h101l194 -256h4l219 256h102l-302 -344h-45zM475 -66l-273 344h101l194 -256h4l219 256h102l-302 -344h-45z" />
    <glyph glyph-name="fs-expert" unicode="&#xe637;" 
d="M749 19q0 -13 -9 -22t-21 -9q-13 0 -22 9t-9 22q0 50 -35 83q-22 21 -51 33t-52 14q-34 3 -57 25v0q-24 25 -24 57v13q0 18 17 27q20 13 39 62q16 39 29 50l1 1l1 1q15 13 23 34q7 21 -2 31l-1 1v0q-12 15 -6 34q10 32 12 55q4 27 0 46v0q-5 36 -36 73q-19 21 -31 19
q-17 -2 -30 4q-16 8 -23 21q-7 9 -30 13q-16 3 -54 3q-56 -1 -91 -25q-34 -22 -49 -68q-13 -37 -12 -76q0 -39 13 -66q2 -7 2 -12q0 -12 -8 -22v0l-1 -1q-8 -10 -2 -30l1 1q7 -20 24 -36v0l3 -2q12 -12 26 -49q21 -51 43 -64q15 -9 15 -26v-12q0 -33 -24 -57
q-22 -22 -56 -25q-23 -2 -52 -14t-51 -33q-36 -33 -36 -83q0 -13 -9 -22t-21.5 -9t-21.5 9t-9 22q0 75 54 127q30 29 69.5 45t71.5 19q11 0 18 8q4 3 6 9q-29 24 -53 83q-9 24 -12 28h-1v1q-19 16 -31.5 38.5t-16.5 48.5t10 49q-12 35 -12 74q0 51 15 97q22 65 73 98
q49 34 124 35q39 1 65 -3q48 -10 68 -38q44 5 82 -40q15 -17 28 -41q26 6 63 -1h2q54 -12 77 -39q38 2 69 -35q16 -19 27.5 -44.5t15.5 -43.5q3 -26 -6 -67q-4 -20 -5 -26q20 -31 5 -72q-11 -26 -35 -51q-1 -1 -10 -21q-19 -47 -40 -67q1 -3 2 -5q3 -3 11 -4q27 -2 60.5 -16
t58.5 -38q47 -44 47 -108q0 -13 -9 -22t-22 -9q-12 0 -21 9t-9 22q0 38 -28 65q-33 31 -82 37v-1q-33 3 -53 27q-18 23 -18 57q0 18 16 26q15 10 31 49q12 33 24 44h1l1 1q12 11 18 26q5 14 -1 20q-7 8 -8 19q-1 22 7 52q7 28 4 44q-5 30 -28 57q-13 15 -21 14q-15 -2 -28 5
h-2q-12 7 -19 17v1q-7 9 -42 17l-2 1q-17 3 -30 2l2 -4h-1q5 -30 1 -63q-4 -29 -12 -54q15 -22 12 -48.5t-15 -49t-31 -40.5l-1 -1v0l-1 -1q-3 -3 -13 -28q-24 -58 -51 -81q0 -7 5 -11v-1q9 -7 19 -7q32 -3 71 -19t69 -45q54 -52 54 -127z" />
    <glyph glyph-name="fs-funding" unicode="&#xe638;" 
d="M911 -10q-25 32 -45 92q-19 60 -19 108v163q0 68 -26 129t-73 107q-49 50 -108 73q-30 12 -59 18l96 95q9 10 9 24q0 15 -10 25t-24 10h-280q-14 0 -24 -10q-10 -11 -10 -25t10 -24l94 -95q-30 -6 -58 -18q-60 -24 -109 -73q-47 -46 -73 -108q-25 -62 -25 -128v-163
q0 -49 -20 -108q-19 -59 -43 -90q-9 -10 -9 -23q0 -14 10 -24.5t24 -10.5h745q13 0 22 8q11 9 12.5 23t-7.5 25zM568 765l-56 -57l-57 57h113zM201 4q15 32 23 57q23 70 23 129v163q0 54 20 101q18 47 58 87q36 37 85 57q48 20 102 20h1q53 0 101 -20t86 -57q78 -79 78 -188
v-163q0 -60 22 -129q12 -33 23 -57h-622zM663 465l-111 -187h87v-42h-101v-57h101v-42h-101v-83h-52v83h-105v42h105v57h-105v42h90l-110 187h59q77 -139 93 -177h1q6 16 31 62l62 115h56z" />
    <glyph glyph-name="fs-institute" unicode="&#xe639;" 
d="M137 73q-9 0 -15.5 6.5t-6.5 15.5t6.5 15t15.5 6h38v394h-76q-15 0 -26 10.5t-11 25.5q0 24 24 34l410 205q16 8 32 0l414 -206q13 -7 17.5 -21.5t-2.5 -27.5q-9 -20 -32 -20v0h-76v-394h38q9 0 15.5 -6t6.5 -15t-6.5 -15.5t-15.5 -6.5h-750zM248 510v-394h128v394h-128z
M448 510v-394h128v394h-128zM648 510v-394h128v394h-128zM772 582l-260 130l-260 -130h520zM99 -21q-15 0 -26 10.5t-11 25.5t11 25.5t26 10.5h826q15 0 26 -10.5t11 -25.5t-11 -25.5t-26 -10.5h-826z" />
    <glyph glyph-name="icon-test" unicode="&#xe63a;" 
d="M887 -63v843l-133 116l-444 -166v-41l403 136v-949h268v61h-94zM166 196l211 43v107l-211 -56v-94zM166 -126h211v113l-211 -16v-97zM166 36l211 20v107l-211 -35v-92zM166 360l211 58v111l-211 -71v-98zM611 637l-119 72l-449 -162v-675h59v643l336 110v-750h173v762v0z
M611 637z" />
    <glyph glyph-name="icon-test1" unicode="&#xe63b;" 
d="M513.5 798q-116.5 0 -215.5 -57.5t-156.5 -156.5t-57.5 -215.5t57.5 -215.5t156.5 -156.5t215.5 -57.5t215.5 57.5t156.5 156.5t57.5 215.5t-57.5 215.5t-156.5 156.5t-215.5 57.5zM567 4q-18 -2 -35 -3v163h135q-37 -119 -100 -160zM361 164h134v-163q-16 1 -33 3
q-64 41 -101 160zM146 350h149q2 -78 17 -149h-126q-36 70 -40 149zM462 733q17 2 33 3v-166h-135q37 122 102 163zM668 570h-136v166q17 -1 35 -3q64 -42 101 -163zM678 533q17 -70 18 -146h-164v146h146zM495 533v-146h-163q1 76 18 146h145zM295 387h-149q4 77 39 146
h127q-15 -69 -17 -146zM332 350h163v-149h-144q-18 71 -19 149zM532 201v149h164q-2 -78 -19 -149h-145zM733 350h148q-4 -79 -40 -149h-125q15 71 17 149zM733 387q-2 77 -17 146h126q35 -69 39 -146h-148zM821 570h-114q-25 89 -69 145q116 -42 183 -145zM390 715
q-44 -56 -69 -145h-115q68 104 184 145zM207 164h115q25 -87 68 -142q-115 41 -183 142zM638 22q43 56 68 142h114q-68 -101 -182 -142z" />
    <glyph glyph-name="icon-test2" unicode="&#xe63c;" 
d="M671 -118q57 0 103 26q43 25 79 80q4 8 6 11q25 45 -1 108.5t-92 115.5q-76 60 -147 60q-51 0 -76 -35q-8 -5 -15 -5q-4 0 -8 5l-0.5 0.5l-0.5 0.5q-38 49 -69 104q-28 50 -50 103q-2 14 1 18q2 2 4 2q37 1 64 31q24 29 34 76.5t3 103.5q-11 85 -52.5 142t-92.5 57h-2
q-5 0 -10 -1q-63 3 -113 -26q-77 -43 -105 -142t-2.5 -229.5t99.5 -261.5q87 -155 209 -249.5t234 -94.5zM620 226q50 0 111 -48q48 -37 70.5 -81.5t10.5 -67.5l-2.5 -5t-2.5 -4q-24 -42 -61 -63q-33 -19 -75 -19q-95 0 -205 88t-189 228q-64 113 -89 229.5t-5 204.5t80 122
q38 22 86 19h7q2 1 4 1q27 0 54.5 -44t35.5 -106q5 -43 -1.5 -80t-22.5 -56q-11 -12 -22 -12q-28 0 -47 -23q-20 -25 -12 -67q1 -3 2 -5q23 -58 54 -112q34 -60 75 -113q2 -3 5 -5q20 -21 47 -21q31 0 54 21q3 3 5 7q8 12 33 12zM708 417q11 0 19 6.5t9 16.5q8 40 -15 74
q-24 34 -64 41q-12 2 -21.5 -4.5t-11.5 -18t4.5 -21.5t18.5 -12q17 -3 27 -17q10 -15 6 -32q-2 -11 5 -21t18 -12h5zM805 419q10 0 18 6.5t10 16.5q13 71 -28 130.5t-112 72.5q-12 2 -21.5 -5t-11.5 -18.5t4.5 -21t18.5 -11.5q47 -9 74.5 -49t19.5 -88q-2 -11 4.5 -21
t18.5 -12h5zM915 388q10 0 18 6.5t10 16.5q23 122 -47.5 224t-192.5 124q-12 2 -21.5 -4.5t-11.5 -18.5t4.5 -21.5t18.5 -11.5q98 -18 155 -101q57 -82 39 -181q-2 -11 4.5 -21t18.5 -12h5z" />
    <glyph glyph-name="icon-test3" unicode="&#xe63d;" 
d="M215 318v-310q0 -15 10.5 -25.5t25.5 -10.5h554q15 0 25.5 10.5t10.5 25.5v321l-317 246zM607 304v-168q0 -14 -10.5 -23.5t-24.5 -9.5h-87q-15 0 -25 9.5t-10 23.5v168q0 14 10 24t25 10h87q14 0 24.5 -10t10.5 -24zM554 772q-11 9 -27 6q-17 8 -32 -4l-397 -321
q-11 -8 -13 -21.5t7 -24.5l19 -26q9 -11 22 -13t24 6l367 298l350 -285q11 -8 24 -6t21 12l20 26q8 11 6.5 24.5t-12.5 21.5z" />
    <glyph glyph-name="edit" unicode="&#xe69f;" 
d="M967 694q-2 23 -14.5 51.5t-29.5 44.5l-6 7q-41 41 -99 41q-54 0 -92 -38l-570 -570q-20 -20 -43.5 -81.5t-35 -101.5t-19.5 -76q-4 -15 7 -27l6 -6q9 -8 20 -8q4 0 7 1q36 8 77 18t103.5 33t82.5 43l570 570q39 40 36 99zM710 626q4 -4 10 -4t10 4l43 43l27 -27
l-498 -498l-27 27l414 414q4 4 4 10t-4 10t-10 4t-10 -4l-414 -414l-29 29l498 498l29 -29l-43 -43q-4 -4 -4 -10t4 -10zM351 96l-29 28l498 498l29 -29zM146 75l58 -58q-40 -12 -82 -22q11 40 24 80zM235 27l-79 78q24 69 40 84l10 11l39 -39v0v0l86 -86l-11 -10
q-15 -15 -85 -38zM891 636l-22 -23l-86 86v0v0l-39 39l22 22q21 21 52 21q34 0 59 -25l6 -6q10 -10 18 -27.5t9 -32.5q2 -33 -19 -54z" />
    <glyph glyph-name="equalizer" unicode="&#xe6a0;" 
d="M226 645v180q0 12 -8.5 20t-20 8t-20 -8t-8.5 -20v-178q-53 -8 -88 -49t-35 -95t35 -95t88 -49v-416q0 -12 8.5 -20t20 -8t20 8t8.5 20v418q49 12 80.5 51.5t31.5 90.5t-31.5 90.5t-80.5 51.5zM192 414q-37 0 -63 26t-26 63t26 63t63 26t63 -26t26 -63t-26 -63t-63 -26z
M221 565h-4q-1 1 -3 1q-5 0 -9.5 -4.5t-4.5 -10.5q0 -11 12 -14h4q1 -1 2 -1q6 0 10.5 4.5t4.5 10.5q0 11 -12 14zM168 556q-16 -9 -27.5 -29t-11.5 -38v-1q0 -6 4 -10t10 -4t10 4t4 10v1q0 28 25 42q7 4 7 12q0 6 -4 10.5t-10 4.5q-4 0 -7 -2zM539 389v436q0 12 -8.5 20
t-20 8t-20 -8t-8.5 -20v-434q-53 -8 -88 -49t-35 -95t35 -95t88 -49v-160q0 -12 8.5 -20t20 -8t20 8t8.5 20v162q48 12 80 51.5t32 90.5t-32 90.5t-80 51.5zM505 158q-37 0 -63 26t-26 63t26 63t63 26t63 -26t26 -63t-26 -63t-63 -26zM534 308l-4 1q-1 1 -3 1q-6 0 -10 -4.5
t-4 -10.5q0 -11 12 -14h4q1 -1 2 -1q12 0 14 12q1 1 1 3q0 11 -12 13zM481 300q-16 -9 -27.5 -29t-11.5 -38v-1q0 -6 4 -10t10 -4t10 4t4 10v1q0 28 25 42q7 4 7 12q0 6 -4 10.5t-10 4.5q-4 0 -7 -2zM978 602.5q0 51.5 -31.5 91t-80.5 50.5v81q0 12 -8.5 20t-20 8t-20 -8
t-8.5 -20v-78q-53 -9 -88 -49.5t-35 -95t35 -95t88 -49.5v-515q0 -12 8.5 -20t20 -8t20 8t8.5 20v518q49 11 80.5 50.5t31.5 91zM832 513q-37 0 -63 26.5t-26 63t26 63t63 26.5t63 -26.5t26 -63t-26 -63t-63 -26.5zM861 664l-4 1h-3q-5 0 -9.5 -4t-4.5 -10q0 -12 12 -14
l4 -1h2q12 0 14 11q1 2 1 3q0 12 -12 14zM808 655q-16 -9 -27.5 -28.5t-11.5 -38.5q0 -6 4 -10t10 -4t10 4t4 10q0 29 25 43q7 4 7 12q0 6 -4 10t-10 4q-4 0 -7 -2z" />
    <glyph glyph-name="fork" unicode="&#xe6a2;" 
d="M403 573l-10 -10q-4 -5 -4 -10.5t4 -10t10 -4.5t10 5l10 10q5 4 5 10t-4 10t-10 4t-11 -4zM386 531q-4 2 -8 2q-8 0 -12 -7q-43 -74 -22 -157q3 -11 14 -11q6 0 10 4.5t4 10.5v3q-19 72 19 136q2 3 2 7q0 8 -7 12zM947 674q-8 8 -20 8t-20 -8l-153 -153l-131 130l153 154
q9 8 9 20t-8.5 20.5t-20.5 8.5t-20 -9l-153 -153l-81 80q-8 8 -20 8t-20 -8l-146 -146q-84 -84 -85 -203q-1 -96 56 -172q-28 -79 -92 -110q-29 -14 -52.5 -39.5t-36 -48.5t-22 -50t-12 -38t-3.5 -18v-4q0 -12 8 -20t20 -8v0q10 0 18 7t10 17q1 4 2.5 12.5t9 30t17 40
t27.5 38t39 30.5q71 34 110 115q81 -76 193 -76q120 0 205 85l146 146q9 8 9 20t-9 20l-80 80l153 154q8 8 8 20t-8 20zM688 254q-68 -68 -165 -68q-95 0 -160 65l-10 10q-66 66 -65 162t68 163l126 126l81 -81v0l251 -251z" />
    <glyph glyph-name="gamepad" unicode="&#xe6a4;" 
d="M768 568h-197q19 31 19 62q1 43 -32 73q-36 32 -41.5 52t13.5 47q6 7 6 16q0 15 -12 23q-8 6 -17 6q-14 0 -23 -12q-18 -24 -22.5 -48.5t-1 -41.5t16 -35.5t21 -27t22.5 -21.5t14 -30q-1 -32 -37 -63h-241q-100 0 -171 -72.5t-71 -174.5q0 -36 4.5 -81t17.5 -102.5
t32.5 -104t53.5 -78.5t77 -32q62 0 137 57.5t111 131.5h130q36 -74 111 -132.5t137 -58.5q43 0 77 32.5t53.5 79t32.5 104.5t17.5 103.5t4.5 82.5q0 101 -71 173t-171 72zM825 -22q-46 0 -111.5 54t-91.5 119q-7 18 -26 18h-168q-19 0 -26 -18q-25 -64 -91 -117.5
t-112 -53.5q-29 0 -54.5 33.5t-41 85t-24 110t-8.5 112.5q0 77 55 133.5t130 56.5h512q76 0 130.5 -55.5t54.5 -132.5q0 -49 -8.5 -106.5t-23.5 -112t-40.5 -90.5t-55.5 -36zM491 226h-15q-5 0 -9.5 -4t-4.5 -10t4.5 -10t9.5 -4h15q6 0 10 4t4 10t-4 10t-10 4zM434 226h-53
q-9 0 -13 -9q-20 -52 -78.5 -111.5t-89.5 -59.5q-5 0 -9.5 -4t-4.5 -10t4.5 -10t9.5 -4q42 0 103.5 61t87.5 119h43q6 0 10 4t4 10t-4 10t-10 4zM240 211q0 -6 4 -10t10 -4t10.5 4t4.5 10v86h79q6 0 10.5 4.5t4.5 10t-4.5 10t-10.5 4.5h-79v84q0 6 -4.5 10t-10.5 4t-10 -4
t-4 -10v-84h-91q-6 0 -10 -4.5t-4 -10t4 -10t10 -4.5h91v-86zM778 309q20 0 34.5 14.5t14.5 34.5t-15 35q-13 13 -34 13t-35 -13q-14 -15 -14 -35t14.5 -34.5t34.5 -14.5v0zM763.5 372.5q5.5 5.5 14.5 5.5v0q8 0 14 -6t6 -14t-6 -14t-14.5 -6t-14 6t-5.5 14v0q0 9 5.5 14.5z
M890 315q-14 13 -34.5 13t-34.5 -13q-14 -15 -14 -35t14.5 -34.5t34.5 -14.5v0q20 0 34.5 14.5t14.5 34.5t-15 35zM870 266q-6 -6 -14.5 -6t-14 6t-5.5 14.5t5.5 14t14 5.5t14.5 -6t6 -14t-6 -14zM749 280v0q0 20 -15 35q-13 13 -34 13t-35 -13q-14 -15 -14 -35v0v0
q0 -20 14.5 -34.5t34.5 -14.5t34.5 14.5t14.5 34.5v0zM714 266q-6 -6 -14.5 -6t-14 6t-5.5 14.5t5.5 14t14.5 5.5v0q8 0 14 -5.5t6 -14.5v0q0 -8 -6 -14zM743 237q-14 -15 -14 -35t14.5 -34.5t34.5 -14.5t34.5 14.5t14.5 34.5v0q0 20 -15 35q-13 13 -34 13t-35 -13zM792 188
q-6 -6 -14.5 -6t-14 6t-5.5 14v0q0 9 5.5 14.5t14 5.5t14.5 -5.5t6 -14t-6 -14.5z" />
    <glyph glyph-name="mouse" unicode="&#xe6b0;" 
d="M260 406l-45 -45q-126 -121 -43 -240q4 -6 11 -6q5 0 8 2q12 8 4 20q-68 99 40 204l45 45q4 4 4 10t-4 10t-10 4t-10 -4zM221 104q-4 4 -10 4t-10.5 -4t-4.5 -10t5 -10l6 -7q4 -3 10 -3t10 4t4 10q0 5 -4 10zM578 470l-51 -50q-4 -4 -4 -10t4 -10t10 -4t10 4l51 50
q4 4 4 10t-4 10.5t-10 4.5t-10 -5zM951 852q-4 1 -8 1q-8 0 -16.5 -6t-10.5 -14l-3 -9t-9 -20.5t-16.5 -27.5t-25.5 -28t-34 -24q-78 -38 -106 -97q-33 28 -87 47.5t-97 19.5h-1v0q-49 0 -108 -24.5t-93 -58.5l-201 -201q-83 -83 -83 -201t83 -202l10 -9q83 -83 201 -83
t202 83l200 200q79 79 83.5 189.5t-65.5 194.5q9 53 87 91q25 12 46 31.5t33.5 36.5t22 36.5t12 27t4.5 12.5q1 4 1 8q0 9 -6 17t-15 10zM508 38q-28 -27 -75 -47t-86 -20h-0.5h-0.5q-39 0 -86 20t-75 47l-9 10q-67 66 -67 160.5t67 161.5l150 151q17 -32 40.5 -66
t63.5 -81.5t99.5 -96t129.5 -87.5zM708 239l-28 -28q-58 31 -110 71.5t-86.5 76t-64.5 74t-45 63t-27 46.5l29 29q28 27 75 46.5t86 19.5v0q95 0 162 -66l9 -10q67 -66 67 -161t-67 -161z" />
    <glyph glyph-name="icon-test4" unicode="&#xe63e;" 
d="M229 467q14 0 22.5 9t8.5 23q1 40 14 78q26 75 94 121t150 43q144 -4 215 -129q37 -66 27 -137q-5 -40 -34 -90q-65 -115 -211 -255q-4 -4 -9 1q-37 33 -70 67q-104 108 -149 201q-5 11 -17.5 15.5t-24 -0.5t-16 -16.5t1.5 -23.5q11 -25 26 -50q81 -130 230 -257
q25 -21 49 0q72 64 135 137q78 90 118 166q36 71 37 128q-2 99 -61 179q-55 72 -142.5 104.5t-177.5 12.5q-108 -23 -177.5 -106t-69.5 -189q0 -14 8.5 -23t22.5 -9zM947 11q-42 70 -126 209q-8 14 -25 15q-18 1 -28 -13q-11 -16 0 -33q42 -70 92 -153q4 -7 4 -9h-706
q11 19 32 54q52 86 65 108q9 14 3 28t-22 17q-22 6 -36 -17q-112 -185 -121 -201q-12 -19 -2 -34.5t32 -15.5q59 1 386 1h422q20 0 29.5 14t0.5 30zM637 504q0 49 -36.5 84t-88.5 35t-89 -35t-37 -84q0 -50 36.5 -85t88.5 -35t89 35t37 85zM449 504q0 24 18.5 41.5
t44.5 17.5q25 0 43.5 -17.5t18.5 -42t-18 -42t-43 -17.5q-27 0 -45.5 17.5t-18.5 42.5z" />
    <glyph glyph-name="icon-test5" unicode="&#xe63f;" horiz-adv-x="1025" 
d="M892 84h-312l-229 -176q-13 -13 -31.5 -13t-31.5 13q-18 18 -18 51v125h-139q-54 0 -92.5 39.5t-38.5 95.5v522q0 56 38.5 95.5t92.5 39.5h761q55 0 93.5 -39.5t38.5 -95.5v-522q0 -56 -38.5 -95.5t-93.5 -39.5zM927 720q0 23 -15.5 41.5t-37.5 18.5h-724
q-22 0 -37.5 -18.5t-15.5 -41.5v-483q0 -23 15.5 -39.5t37.5 -16.5h178q15 -3 25.5 -14t13.5 -25v-110l170 131q23 23 43 18h294q22 0 37.5 16.5t15.5 39.5v483zM761.5 413q-28.5 0 -49 19.5t-20.5 47.5t20.5 48t49 20t49 -20t20.5 -48t-20.5 -47.5t-49 -19.5zM512 413
q-29 0 -49 19.5t-20 47.5t20 48t49 20t49 -20t20 -48t-20 -47.5t-49 -19.5zM262.5 413q-28.5 0 -49 19.5t-20.5 47.5t20.5 48t49 20t49 -20t20.5 -48t-20.5 -47.5t-49 -19.5z" />
    <glyph glyph-name="zuofei" unicode="&#xe640;" 
d="M987 577q-16 40 -49 89.5t-63.5 80t-80 63.5t-89.5 49q-92 37 -192 37h-1q-87 0 -193 -44t-168 -106t-105.5 -167.5t-43.5 -193.5v0q0 -100 37 -192q39 -96 112.5 -169.5t169.5 -112.5q92 -37 192 -37t192 37q40 16 89.5 49t80 63.5t63.5 80t49 89.5q15 38 26 94t11 97v1
v0q0 42 -11 98t-26 94zM96 216q-33 81 -33 169t33 169q15 35 43.5 78.5t55.5 70.5q54 54 147 92.5t170 38.5h1q88 0 169 -33q29 -11 66 -34t60 -43l-634 -634q-20 23 -43 60t-35 66zM929 216q-14 -35 -43 -78.5t-55 -70.5q-55 -54 -147.5 -93t-169.5 -39h-1v0
q-37 0 -86.5 10t-82.5 23q-29 12 -66 35t-60 43l634 634q45 -52 77.5 -138.5t32.5 -155.5v-1q0 -88 -33 -169z" />
    <glyph glyph-name="dengdai" unicode="&#xe641;" 
d="M493 776q116 0 214 -57t155 -155.5t57 -214t-57 -213.5t-155 -155.5t-214 -57.5t-214 57.5t-155 155.5t-57 213.5t57 214t155 155.5t214 57v0zM493 827v0q-97 0 -185.5 -37.5t-152.5 -101.5t-102 -152.5t-38 -185.5v0v-1q0 -97 38 -185t102 -152t152.5 -102t185.5 -38v0
v0q97 0 185.5 38t152.5 102t102 152t38 185v1v0q0 97 -38 185.5t-102 152.5t-152.5 101.5t-185.5 37.5v0v0zM740 350h-211q-3 0 -7 0.5t-11.5 7t-7.5 17.5v211q0 2 -1.5 5.5t-8 9t-15.5 5.5t-15.5 -5t-8.5 -10l-2 -5v-252v-3.5t2 -8.5t5.5 -11t11 -9t17.5 -4h252
q2 1 5.5 2.5t9 8t5.5 15.5t-5 15.5t-10 8.5l-5 2v0zM252 894q-47 5 -85.5 -3t-64 -25t-45 -38.5t-30 -44t-17 -41.5t-8.5 -31l-2 -12q1 -2 2.5 -5.5t8 -9.5t15.5 -6t15.5 5.5t7.5 10.5l2 5q5 35 19 61.5t31 41.5t39.5 24.5t40 13t36 4t25 0t10.5 -0.5v0q2 0 5.5 1.5t9 8
t5.5 16t-5 15.5t-10 8l-5 2v0zM739 892q-3 0 -6 -1.5t-8.5 -8t-5.5 -14.5q0 -9 5 -15t10 -7l5 -2q3 0 9 0.5t24.5 0t35 -3.5t38 -12t38 -23.5t30 -39.5t17.5 -58l2.5 -5t7.5 -8.5t15 -5.5q5 0 9.5 2t7.5 4.5t4.5 5.5l2.5 5l1 2q-1 5 -2.5 12t-8 28t-16 40t-29 41t-43.5 37
t-61.5 23t-81.5 3z" />
    <glyph glyph-name="dianqi" unicode="&#xe642;" 
d="M799 610h-86v258q0 11 -8.5 19.5t-19.5 8.5h-1v0q-12 0 -20 -8.5t-8 -19.5v-258h-288v258q0 11 -8 19.5t-20 8.5v0h-1q-11 0 -19.5 -8.5t-8.5 -19.5v-258h-86q-48 0 -81.5 -33.5t-33.5 -80.5v-511q0 -46 33.5 -79.5t81.5 -33.5h574q48 0 81.5 33.5t33.5 79.5v511
q0 47 -33.5 80.5t-81.5 33.5v0zM857 -15q0 -23 -17 -39.5t-40 -16.5h-1h-574h-1q-23 0 -40 16.5t-17 39.5v511q0 24 17 40.5t41 16.5h574q24 0 41 -16.5t17 -40.5v-511v0zM652 264h-214l81 114l53 74q10 15 3 28.5t-21 14.5t-25 -13l-10 -12l-153 -217q-9 -13 -1.5 -27
t22.5 -14h214l-82 -115l-52 -74q-10 -14 -3 -28t20.5 -14.5t25.5 12.5l9 13l154 217q9 12 1.5 26.5t-22.5 14.5v0z" />
    <glyph glyph-name="dengdaizhifu" unicode="&#xe643;" 
d="M512 -77q94 0 179 36.5t147 98.5t98.5 147t36.5 179t-36.5 179t-98.5 147t-147 98.5t-179 36.5t-179 -36.5t-147 -98.5t-98.5 -147t-36.5 -179t36.5 -179t98.5 -147t147 -98.5t179 -36.5zM512 -128q-139 0 -257 68.5t-186.5 186.5t-68.5 257t68.5 257t186.5 186.5
t257 68.5t257 -68.5t186.5 -186.5t68.5 -257t-68.5 -257t-186.5 -186.5t-257 -68.5zM461 717v-359q0 -10 7.5 -17.5t18 -7.5t18 7.5t7.5 17.5v359q0 10 -7.5 17.5t-18 7.5t-18 -7.5t-7.5 -17.5zM845 384h-359q-10 0 -17.5 -7.5t-7.5 -18t7.5 -18t17.5 -7.5h359
q10 0 17.5 7.5t7.5 18t-7.5 18t-17.5 7.5z" />
    <glyph glyph-name="bianji1" unicode="&#xe644;" 
d="M649 855h-505q-59 0 -101.5 -41t-42.5 -100v-701q0 -59 42.5 -100t102.5 -41h720q60 0 102.5 41.5t42.5 99.5v489h-73v-489q0 -29 -21 -50t-51 -21h-720q-30 0 -51.5 21t-21.5 50v701q0 29 21 50t51 21h505v70zM453 389q-11 -10 -11 -24.5t10.5 -25t25.5 -10.5t25 10
l510 497q11 10 11 25t-10.5 25t-25.5 10t-26 -10z" />
    <glyph glyph-name="fenlei" unicode="&#xe645;" 
d="M242 896q100 0 170 -71l2 -1q29 -29 49 -78.5t20 -90.5v-1v-215q0 -11 -7.5 -18.5t-18.5 -7.5h-215h-1q-41 0 -91 20.5t-79 50.5v0v0q-30 29 -50.5 79t-20.5 91v0q0 100 71 171q29 30 79 50.5t91 20.5h1zM375 788q-23 22 -62 38.5t-71 16.5v0h-1q-32 0 -71 -16.5
t-61.5 -39t-39 -61.5t-16.5 -71v-1q0 -78 55 -133v0q23 -23 62 -39t71 -16h1h188v188q0 77 -54 132l-1 2v0zM682 329q0 11 8 18.5t19 7.5h73q100 0 171 -71l2 -1q28 -29 48.5 -78.5t20.5 -90.5v0v-1q0 -41 -20.5 -91t-50 -79t-79.5 -50t-91 -21h-1v0q-41 0 -91 20.5
t-79.5 50t-50 79.5t-20.5 91v1v215q0 10 8 17.5t18.5 7.5t18 -7.5t8.5 -17.5v-215q0 -78 55 -134q23 -22 62 -38.5t71 -16.5v0h1q77 0 132.5 55.5t55.5 132.5v1v0q0 32 -16 70.5t-38 61.5l-1 1q-23 23 -62 39t-71 16h-1h-73v0q-11 0 -19 8t-8 19zM242 -75v0q78 0 133 55.5
t55 132.5v1v188h-188h-1q-32 0 -71 -16t-61.5 -39t-39 -62t-16.5 -71v0q0 -79 55 -134l2 -1q22 -22 61 -38t70 -16h1v0zM412 -57q-29 -30 -79 -50.5t-91 -20.5v0h-1q-40 0 -90 20.5t-79 48.5l-1 2q-30 29 -50.5 79t-20.5 91v1q0 100 71 170q29 30 79 50.5t91 20.5h1h215
q11 0 18.5 -7.5t7.5 -18.5v-215v-1q0 -41 -20.5 -91t-50.5 -79v0v0zM782 843v0q-32 0 -71 -16.5t-62 -39t-39 -61.5t-16 -71v-1v-188h188v0q78 0 133.5 55t55.5 133v0v1q0 32 -16.5 71t-38.5 62v0q-23 22 -62 38.5t-71 16.5h-1zM612 825q29 30 79 50.5t91 20.5v0
q100 0 171 -71v0v0q30 -29 50.5 -79t20.5 -91v-1v0q0 -41 -20.5 -91t-50.5 -79v0q-29 -30 -79 -50.5t-91 -20.5h-1h-215q-11 0 -18.5 7.5t-7.5 18.5v215q0 101 71 171v0z" />
    <glyph glyph-name="gengduo" unicode="&#xe646;" 
d="M685 480l-365 397q-18 19 -44.5 19t-44.5 -19q-20 -19 -20 -45.5t20 -44.5l365 -397q3 -3 4 -6t0 -4.5t-4 -1.5l-372 -397q-19 -19 -19 -45t19 -45q29 -19 45 -19h2q26 0 43 19l365 397q20 15 34.5 44t14.5 55q0 23 -12.5 50.5t-30.5 42.5z" />
    <glyph glyph-name="gouwuche-" unicode="&#xe647;" 
d="M901 264q-11 -32 -43.5 -54.5t-66.5 -22.5h-461q-40 0 -73 27.5t-41 66.5l-60 339l-44 226h-87q-10 0 -17.5 7.5t-7.5 17.5t7.5 17.5t17.5 7.5h107q3 0 7 -1q5 -2 8 -5q2 -1 3.5 -3t2.5 -4t2 -5l0.5 -0.5t0.5 -1.5l45 -221h741v0q34 0 58 -24t24 -58q0 -14 -5 -28
l-118 -281v0zM942 605h-732l55 -315q4 -23 22.5 -38t42.5 -15h461q21 0 38.5 12t24.5 32l118 281q2 5 2 11q0 10 -6 19q-9 13 -26 13v0v0zM312 82q41 0 70.5 -29.5t29.5 -71.5q-1 -40 -30 -69t-70 -29t-70.5 29t-30.5 69q0 42 29.5 71.5t71.5 29.5v0zM312 -69v0
q21 0 35.5 14.5t14.5 35.5t-15 35t-35 14t-35 -14t-16 -35v0q0 -21 15 -35.5t36 -14.5v0zM756 82q42 0 71.5 -29.5t29.5 -71t-29.5 -71t-71 -29.5t-71 29.5t-29.5 71t29.5 71t70.5 29.5v0zM807 -19q-1 21 -16 35t-35 14t-35 -14t-16 -35q1 -20 16 -34.5t35 -14.5t35 14.5
t16 34.5z" />
    <glyph glyph-name="guanbi" unicode="&#xe648;" 
d="M512 347l154 -154q8 -8 19 -8v0q11 0 18.5 7.5t7.5 18.5t-8 19l-154 154l154 154q8 8 8 18q0 11 -8 19t-19 8q-10 0 -18 -8l-154 -154l-154 154q-8 8 -18 8q-11 0 -19 -8t-8 -19q0 -10 8 -18l154 -154l-154 -154q-8 -8 -8 -19t7.5 -18.5t18.5 -7.5t19 8zM512 -128
q-104 0 -199 40.5t-163.5 109t-109 163.5t-40.5 199t40.5 199t109 163.5t163.5 109t199 40.5t199 -40.5t163.5 -109t109 -163.5t40.5 -199t-40.5 -199t-109 -163.5t-163.5 -109t-199 -40.5zM53 384q0 -93 36.5 -178t98 -146.5t146.5 -98t178 -36.5t178 36.5t146.5 98
t98 146.5t36.5 178t-36.5 178t-98 146.5t-146.5 98t-178 36.5t-178 -36.5t-146.5 -98t-98 -146.5t-36.5 -178v0z" />
    <glyph glyph-name="guanbi-" unicode="&#xe649;" 
d="M584 384l425 425q15 15 15 36t-15 36t-36.5 15t-36.5 -15l-424 -425l-425 425q-15 15 -36 15t-36 -15t-15 -36t15 -36l425 -425l-425 -424q-15 -15 -15 -36.5t15 -36.5t36 -15t36 15l425 425l424 -425q15 -15 36.5 -15t36.5 15t15 36.5t-15 36.5z" />
    <glyph glyph-name="gouwuche" unicode="&#xe64a;" 
d="M512 -100q98 0 187.5 38.5t154.5 103.5t103.5 154.5t38.5 187.5t-38.5 187.5t-103.5 154.5t-154.5 103.5t-187.5 38.5t-187.5 -38.5t-154.5 -103.5t-103.5 -154.5t-38.5 -187.5t38.5 -187.5t103.5 -154.5t154.5 -103.5t187.5 -38.5zM512 -128q-139 0 -257 68.5
t-186.5 186.5t-68.5 257t68.5 257t186.5 186.5t257 68.5t257 -68.5t186.5 -186.5t68.5 -257t-68.5 -257t-186.5 -186.5t-257 -68.5zM792 502l-66 -188q-6 -18 -24 -31t-37 -13h-259q-22 0 -40.5 15.5t-22.5 37.5l-44 224l-15 67h-48q-6 0 -10 4t-4 10v0q0 6 4 10t10 4h60
h0.5h0.5q3 -1 5 -2q1 -1 2 -1.5t2 -1.5t1.5 -2.5t1.5 -2.5v-0.5v-0.5l15 -67h425q24 0 37.5 -20t5.5 -42v0zM764 528q-6 8 -15 8v0h-420l41 -207q3 -14 13 -22.5t23 -8.5h259q26 0 35 25l66 188q1 3 1 6q0 6 -3 11v0zM396.5 240q23.5 0 40 -17t16.5 -40.5t-16.5 -40
t-40 -16.5t-40 16.5t-16.5 40.5v0q0 23 16.5 40t40 17zM396 154q12 0 20.5 8.5t8.5 20.5t-8.5 20t-20 8t-20 -8t-8.5 -20t8.5 -20.5t19.5 -8.5v0zM645 240q23 0 39.5 -17t16.5 -40.5t-16.5 -40t-39.5 -16.5t-39.5 16.5t-16.5 40.5v0q0 23 16.5 40t39.5 17zM645 154
q12 0 20 8.5t8 20.5t-8 20t-20 8t-20 -8t-8 -20t8 -20.5t20 -8.5v0z" />
    <glyph glyph-name="jia" unicode="&#xe64b;" 
d="M1024 435h-461v461h-102v-461h-461v-102h461v-461h102v461h461v102z" />
    <glyph glyph-name="huodong" unicode="&#xe64c;" 
d="M944 890q-26 17 -53 -9l-9 -9q-18 -17 -27.5 -25t-28 -20t-34 -15.5t-42 -6.5t-56 2t-70.5 15t-92 28q-36 12 -87.5 20.5t-88.5 8.5q-10 0 -20 -1q-78 -3 -154 -29q-85 -30 -138 -74q-2 -2 -4 -5q-14 -9 -14 -25q0 -7 2 -12l373 -843q4 -8 11.5 -13t15.5 -5
q13 0 21.5 8.5t8.5 21.5q0 6 -3 12l-172 390l2 6q8 15 12.5 23t13.5 22t16.5 22t19 20t24 18.5t29.5 15t37 12.5t44 7t53.5 3t63.5 -3q10 -1 21 -1q24 0 55 7t52 17q53 26 100 76q76 82 117 201q15 44 19 77q5 48 -18 63v0zM881 752q-35 -89 -90 -153q-86 -100 -188 -90
q-174 15 -268 -46q-48 -32 -83 -90l-161 363q53 37 113 58q152 52 309 -1q181 -61 276 -43q57 10 109 56q-7 -27 -17 -54z" />
    <glyph glyph-name="jifen" unicode="&#xe64d;" horiz-adv-x="1194" 
d="M575 184q-118 0 -221.5 18.5t-173 47.5t-109.5 66t-40 74q0 61 95 114q80 -41 197 -64.5t252 -23.5t252 23.5t197 64.5q95 -53 95 -114q0 -37 -40 -74t-109.5 -66t-173 -47.5t-221.5 -18.5zM1119 125q0 -38 -40 -74.5t-109.5 -66t-173 -47.5t-221.5 -18t-221.5 18
t-173 47.5t-109.5 66t-40 74.5q0 60 95 113q80 -41 197 -64.5t252 -23.5t252 23.5t197 65.5q95 -54 95 -114zM31 655.5q0 37.5 40 74.5t109.5 66t173 47.5t221.5 18.5t221.5 -18.5t173 -47.5t109.5 -66t40 -74.5t-40 -74t-109.5 -66t-173 -47.5t-221.5 -18t-221.5 18
t-173 47.5t-109.5 66t-40 74zM1150 390q0 74 -93 133q93 60 93 133q0 66 -76 121.5t-208 87t-291 31.5t-291 -31.5t-208 -87t-76 -121.5q0 -73 93 -133q-93 -59 -93 -133q0 -73 93 -132q-93 -59 -93 -133q0 -67 76 -122t208 -87t291 -32t291 32t208 87t76 122q0 74 -93 133
q93 59 93 132v0z" />
    <glyph glyph-name="haohuo" unicode="&#xe64e;" 
d="M984 583q-16 38 -48.5 86t-61.5 77q-62 62 -168 106t-193 44h-1h-1q-87 0 -193 -44t-168 -106t-106 -168t-44 -193v-1v-1q0 -87 44 -193t106 -168t168 -106t193 -44h1h1q87 0 193 44t168 106t106 168t44 193v1q0 104 -40 199v0zM512 -78q-94 0 -179.5 36.5t-147.5 98.5
t-98.5 147.5t-36.5 179.5t36.5 179.5t98.5 147.5t147.5 98.5t179.5 36.5t179.5 -36.5t147.5 -98.5t98.5 -147.5t36.5 -179.5t-36.5 -179.5t-98.5 -147.5t-147.5 -98.5t-179.5 -36.5v0zM719 450q26 0 44 18t18 43.5t-18 43.5t-44 18t-44 -18t-18 -43.5t18 -43.5t44 -18z
M305 451q26 0 44 18t18 43.5t-18 44t-44 18.5t-44 -18.5t-18 -44t18 -43.5t44 -18zM772 262q-6 5 -14 5q-13 0 -20 -10q-39 -52 -99 -81.5t-127 -29.5t-127 29.5t-99 81.5q-7 10 -20 10q-10 0 -17 -7.5t-7 -17.5q0 -8 4 -15q19 -25 52.5 -53t61.5 -42q71 -36 152 -36t152 36
q28 14 61.5 42t52.5 53q4 7 4 15q0 13 -10 20z" />
    <glyph glyph-name="jiaoyichenggong" unicode="&#xe64f;" horiz-adv-x="1075" 
d="M1025 474q-8 7 -19 7t-19 -7l-412 -393l-145 138q-8 7 -19 7t-19 -7q-8 -8 -8 -18.5t8 -18.5l164 -156q8 -8 19 -8q14 0 22 10l428 409q8 8 8 18.5t-8 18.5v0zM819 93v-98q0 -30 -22.5 -51t-53.5 -21h-615q-32 0 -54.5 21t-22.5 50v780q0 29 22.5 50t54.5 21h615
q31 0 53.5 -21.5t22.5 -50.5v-282q0 -11 7.5 -18.5t18 -7.5t18 7.5t7.5 18.5v282q0 51 -37.5 87t-89.5 36h-615q-53 0 -90.5 -36t-37.5 -86v-780q0 -50 37.5 -86t90.5 -36h615q52 0 89.5 36t37.5 87v98q0 10 -7.5 17.5t-18 7.5t-18 -7.5t-7.5 -17.5zM206 626h429
q10 0 17.5 7.5t7.5 18t-7.5 18t-17.5 7.5h-429q-11 0 -18.5 -7.5t-7.5 -18t7.5 -18t18.5 -7.5zM206 480h429q10 0 17.5 7.5t7.5 18t-7.5 18t-17.5 7.5h-429q-11 0 -18.5 -7.5t-7.5 -18t7.5 -18t18.5 -7.5zM206 334h322q10 0 17.5 7.5t7.5 18t-7.5 18t-17.5 7.5h-322
q-11 0 -18.5 -7.5t-7.5 -18t7.5 -18t18.5 -7.5z" />
    <glyph glyph-name="jiazai" unicode="&#xe650;" 
d="M512 659v0q-12 0 -20.5 8.5t-8.5 20.5v179q0 12 8.5 20.5t20.5 8.5t20.5 -8.5t8.5 -20.5v-179q0 -12 -8.5 -20.5t-20.5 -8.5zM512 -128q-12 0 -20.5 8.5t-8.5 20.5v179q0 12 8.5 20.5t20.5 8.5t20.5 -8.5t8.5 -20.5v-179q0 -12 -8.5 -20.5t-20.5 -8.5zM995 355h-179
q-12 0 -20.5 8.5t-8.5 20.5t8.5 20.5t20.5 8.5h179q12 0 20.5 -8.5t8.5 -20.5t-8.5 -20.5t-20.5 -8.5v0zM208 355h-179q-12 0 -20.5 8.5t-8.5 20.5t8.5 20.5t20.5 8.5h179q12 0 20.5 -8.5t8.5 -20.5t-8.5 -20.5t-20.5 -8.5zM727 570v0q-12 0 -20.5 8.5t-8.5 20.5t8 21
l127 126q8 10 21 10q12 0 21 -9t9 -21q0 -13 -10 -21l-126 -127q-9 -8 -21 -8v0zM171 13h-1q-12 0 -20.5 9t-8.5 21t9 20l126 127q9 8 21 8t20.5 -8.5t8.5 -20.5t-8 -21l-127 -126q-8 -9 -20 -9v0v0zM853 13v0q-12 0 -20 9l-127 126q-9 9 -9 22q0 12 8.5 20.5t20.5 8.5
q13 0 22 -9l126 -127q9 -8 9 -20t-9 -20.5t-21 -9.5v0zM297 570v0q-12 0 -21 8l-126 127q-10 8 -10 21q0 12 9 21t21 9q13 0 21 -10l127 -126q8 -9 8 -21t-8.5 -20.5t-20.5 -8.5v0z" />
    <glyph glyph-name="jiaju" unicode="&#xe651;" 
d="M985 296q-39 -45 -96 -54v-232q0 -34 -22 -60t-55 -33v-21q0 -10 -7 -17t-18 -7v0q-10 0 -16 7q-7 7 -7 17v19h-504v-19q0 -10 -7 -17t-17 -7v0h-1q-10 0 -16 7q-7 7 -7 17v21q-14 2 -30 12t-25 21t-15.5 28t-6.5 31v1v232q-24 3 -52 19t-44 35q-16 18 -27.5 48.5
t-11.5 54.5v3q0 60 40 106t100 54q6 57 40.5 125t77.5 107q109 102 256 102q143 0 251 -96q45 -40 81 -110t43 -129q57 -9 96 -54.5t39 -104.5q0 -61 -39 -106zM944 321q14 13 23.5 36t9.5 42v2q0 48 -33 81q-13 14 -36 23.5t-42 9.5h-1q-47 0 -80 -33q-14 -14 -23.5 -37.5
t-10.5 -42.5l3 -21v-274v-1q0 -10 -7 -16.5t-17 -6.5v0h-436v0q-10 0 -17 6.5t-7 16.5v1v274l3 21q-1 19 -10.5 42.5t-23.5 37.5q-13 13 -36 23t-42 10h-2q-46 0 -79 -33q-14 -14 -23.5 -37t-9.5 -42v-2q0 -47 33 -80.5t79 -33.5h1q10 0 16.5 -6.5t6.5 -16.5v-1l-1 -42v-211
q0 -19 14 -33t33 -14h1h564h1q19 0 33 14t14 33v0v211l-1 42v1q0 10 6.5 16.5t16.5 6.5h1q46 0 79 33v1zM188 560q56 -10 94 -55t38 -103v-2l-2 -21v-142h388v142l-2 20v3q0 59 39 104.5t98 54.5q-16 122 -109.5 205t-217 83t-217.5 -83q-39 -34 -71 -94.5t-38 -111.5v0z
M318 129h388v60h-388v-60z" />
    <glyph glyph-name="meirong-heicopy" unicode="&#xe652;" 
d="M574 -71q145 52 189 232q18 68 18 143v8q2 47 -20 101t-77 127l-21 27l-12 -33q-33 -86 -198 -134q-71 -21 -184 -36q-19 -3 -36 -10q-39 -7 -12 -149q20 -124 70 -182.5t157 -92.5l-2 -15h-184q-69 0 -109.5 41t-40.5 110v374q0 109 38.5 193t130.5 146q93 61 190 73
q102 10 194 -30t153.5 -116.5t80.5 -172.5q10 -54 10 -93q1 -20 1 -35q4 -104 -1 -190v-4q-4 -49 -9 -88q-8 -66 -16 -87q-30 -122 -121 -122h-186zM742 313v-12q0 -62 -17 -129q-21 -86 -64 -136t-113 -71l-17 -5l12 -88h220q57 0 98.5 38t59.5 113q9 23 18 95q5 40 8 90
l1 4q3 53 3 112q0 62 -4 123q0 35 -10 95q-21 106 -88.5 190.5t-168.5 128.5t-213 33q-105 -13 -206 -79q-102 -69 -145 -162.5t-43 -212.5v-374q0 -87 52 -140t137 -53h218l11 88l-16 5q-72 21 -112.5 47.5t-65.5 73.5t-37 126q-9 46 -8.5 75t9.5 31q2 1 6 2l4 1
q118 15 193 37q157 46 208 130q73 -103 70 -176zM658 269q12 0 39 -18q10 -6 10 3q0 15 -14.5 25t-34.5 10t-34 -10t-14 -25q0 -9 12 -1q23 16 36 16zM346 269q12 0 39 -18q10 -6 10 3q0 15 -14.5 25t-34.5 10t-34 -10t-14 -25q0 -9 12 -1q23 16 36 16z" />
    <glyph glyph-name="jiaoyiguanbi" unicode="&#xe653;" 
d="M729 135l-185 185q-7 8 -7 17q0 10 7 17.5t17 7.5t17 -7l185 -185l185 185q7 7 17 7t17 -7.5t7 -17.5q0 -9 -6 -17l-185 -185l185 -185q7 -7 7 -17t-7.5 -17t-17.5 -7t-17 7l-185 185l-185 -185q-7 -7 -17 -7t-17.5 7t-7.5 17t8 17zM463 -55h-293q-30 0 -51 20t-21 48
v742q0 28 21 48t51 20h586q30 0 51.5 -20t21.5 -49v-268q0 -10 7 -17t17 -7t17.5 7t7.5 17v268q0 49 -36 83.5t-86 34.5h-586q-50 0 -85.5 -34.5t-35.5 -82.5v-742q0 -48 35.5 -82.5t85.5 -34.5h293q10 0 17.5 7.5t7.5 17.5t-7.5 17t-17.5 7zM245 614h408q11 0 18 7.5
t7 17.5t-7 17t-18 7h-408q-10 0 -17 -7t-7 -17t7 -17.5t17 -7.5zM245 475h408q11 0 18 7.5t7 17.5t-7 17t-18 7h-408q-10 0 -17 -7t-7 -17t7 -17.5t17 -7.5zM245 336h194q10 0 17 7.5t7 17.5t-7 17t-17 7h-194q-10 0 -17 -7t-7 -17t7 -17.5t17 -7.5z" />
    <glyph glyph-name="jingxuan" unicode="&#xe654;" 
d="M237 -123l251 139q27 15 50 0l251 -138q8 -5 18 -5q15 0 25.5 10.5t10.5 26.5v6l-49 292q-1 5 -2 13.5t1.5 26t12.5 25.5l208 199q10 11 10 25q0 6 -2 12q-8 26 -26 29h-197q-13 0 -21.5 -9t-5.5 -20q5 -23 34 -23h161l-201 -180q-17 -15 -22.5 -34t-3.5 -31l6 -35
l43 -269l-254 144q-10 4 -20.5 4t-19.5 -4l-243 -139l65 271q3 21 -5.5 43.5t-23.5 38.5l-230 191q94 -1 153 0q148 3 189 52q8 6 25 43t30 70l12 33l44 142l146 -317q11 -24 35 -17q10 3 14 13t-2 24l-160 346q-4 9 -13.5 15t-19 6t-19.5 -6t-14 -15l-61 -183
q-36 -101 -56 -118q-25 -23 -83.5 -29.5t-168.5 -6.5h-76q-23 -4 -29 -24q-4 -10 -2 -23.5t8 -20.5q211 -185 223 -197q17 -15 23 -25t6 -18.5t-1 -21.5l-16 -68.5t-33 -140.5t-20 -79q-10 -30 6 -41q10 -7 21 -7q10 0 18 5z" />
    <glyph glyph-name="miaosha" unicode="&#xe655;" 
d="M512 -128q139 0 257 68.5t186.5 186.5t68.5 257t-68.5 257t-186.5 186.5t-257 68.5t-257 -68.5t-186.5 -186.5t-68.5 -257t68.5 -257t186.5 -186.5t257 -68.5zM512 -93v0q-97 0 -185.5 38t-152 102t-101.5 152t-38 185t38 185t101.5 152t152 102t185.5 38v0q97 0 185 -38
t152 -102t102 -152t38 -185t-38 -185t-102 -152t-152 -102t-185 -38zM894 355h2q14 0 24.5 10.5t10.5 25t-10.5 25t-24.5 10.5h-2q-14 -1 -24 -11.5t-10 -24.5t10 -24t24 -11zM512 750h2q14 0 24.5 10t10.5 24.5t-10.5 25t-24.5 10.5h-2q-14 0 -24 -10.5t-10 -24.5t10 -24.5
t24 -10.5zM512 -52h2q14 0 24.5 10.5t10.5 25t-10.5 24.5t-24.5 10h-2q-14 0 -24 -10.5t-10 -24.5t10 -24.5t24 -10.5zM313 425h37l2.5 -20t3.5 -44.5t-3 -43.5q0 -4 -8 -10t-16 -10l-8 -4l-8 132v0zM228 426q23 1 33 -4l4 -13l-6 -156l-37 -30l7 203h-1zM222 539l130 14
q-2 -25 -7 -31q-3 -3 -10 -4.5t-12 -1.5h-6q-1 -1 -2.5 -2t-4 -3.5t-2.5 -6.5l-0.5 -6t-0.5 -10.5t1 -9.5q1 -2 3.5 -3t5.5 0h2h6t12 -0.5t13.5 -1l5.5 -0.5q-6 -21 -11 -25q-6 -5 -15 -7.5t-15 -2.5h-6l-1 -147l-37 -30v179l-49 -1l-1 35h46l2 35l-48 -6zM452 537h34
q3 -91 0 -102q-1 -3 -5 -5.5t-9 -3t-9.5 -1t-7.5 -0.5h-3v112zM634 372h-107l-224 -157h-84l186 128v210h39v-184l179 124l-82 53q41 -1 61 -4l45 -14l13 -10l24 17q28 9 43 12l56 4l-84 -58l94 -63q-41 -1 -60 0l-22 6l-48 31l-81 -57h52v20h52v-20h119l-22 -38h-97v-55
h-52v55v0zM360 536h36q9 -111 0 -156q-2 -9 -11 -13t-17 -3h-8v172zM561 367h57l-44 -85h-59l46 85v0zM610 317h75l-37 -37h-38v37zM695 359h60l47 -77h-57l-50 77v0z" />
    <glyph glyph-name="shenfenzheng" unicode="&#xe656;" horiz-adv-x="1365" 
d="M1084 693q18 0 30 -12.5t12 -30.5v-148v0q0 -17 -12 -29.5t-30 -12.5h-145q-17 0 -29.5 12.5t-12.5 29.5v0v148v1q0 17 12.5 29.5t29.5 12.5h145zM1084 735h-145q-35 0 -59.5 -25t-24.5 -60v-148q0 -35 24.5 -60t59.5 -25h145q35 0 59.5 25t24.5 60v148q0 35 -24.5 60
t-59.5 25zM1210 854q34 0 58.5 -25t24.5 -60v-770q0 -35 -24.5 -60t-58.5 -25h-1085q-34 0 -58.5 25t-24.5 60v770q0 35 24.5 60t58.5 25h1085v0zM1210 896h-1085q-52 0 -88.5 -37.5t-36.5 -89.5v-770q0 -52 36.5 -89.5t88.5 -37.5h1085q51 0 88 37.5t37 89.5v770
q0 52 -37 89.5t-88 37.5v0zM209 286h500v-43h-500v43zM209 116h500v-42h-500v42z" />
    <glyph glyph-name="shoujihao" unicode="&#xe657;" 
d="M272 870h479q24 0 41.5 -17.5t17.5 -41.5v-854q0 -24 -17.5 -41.5t-41.5 -17.5h-480q-24 0 -41.5 17.5t-17.5 41.5l1 854q0 24 17 41.5t42 17.5zM272 896q-36 0 -61 -25t-25 -60v-854q0 -35 25 -60t60 -25h480q35 0 60 25t25 60v854q0 35 -25 60t-60 25h-479zM294 786
h430v-696h-430v696zM268 812l-1 -748h483v748h-482zM509 6v0q10 0 17.5 -7.5t7.5 -18.5v0v0q0 -10 -7.5 -17.5t-18 -7.5t-18 7.5t-7.5 18t7.5 18t18.5 7.5v0zM508.5 32q-21.5 0 -36.5 -15t-15 -36.5t15 -36.5t36.5 -15t36.5 15t15 36.5t-15 36.5t-36.5 15z" />
    <glyph glyph-name="qingjie" unicode="&#xe658;" 
d="M406 524v0q-13 0 -21.5 -8.5t-8.5 -20.5v-272q0 -12 8.5 -20.5t21 -8.5t21.5 8.5t9 20.5v272q0 12 -9 20.5t-21 8.5v0zM407 769v0q8 0 16 5v-43q0 -12 8.5 -21t21 -9t21 9t8.5 21v90q0 7 5 11.5t11 4.5h138q7 0 11.5 -4.5t4.5 -11.5v-90q0 -12 9 -21t21.5 -9t21 9t8.5 21
v90q0 31 -22 53t-54 22h-138q-30 0 -52 -21t-23 -52q-8 5 -16 5v0h-176q-50 0 -85.5 -35t-35.5 -85v-41q0 -12 8.5 -20.5t21 -8.5t21 8.5t8.5 20.5v41q0 25 18.5 43t43.5 18h176v0zM855 -38q0 -13 -9.5 -22t-22.5 -9h-506v0q-13 0 -22.5 9t-9.5 22v635q0 13 9.5 22t22.5 9
h506q13 0 22.5 -9t9.5 -22v-635zM823 687h-506q-38 0 -65 -26.5t-27 -63.5v-635q0 -37 27 -63.5t65 -26.5h506q38 0 64.5 26.5t26.5 63.5v635q0 37 -26.5 63.5t-64.5 26.5v0zM406 162v0q-13 0 -21.5 -8.5t-8.5 -21.5v-45q0 -12 8.5 -20.5t21 -8.5t21.5 8.5t9 20.5v45
q0 13 -9 21.5t-21 8.5v0v0z" />
    <glyph glyph-name="quanbudingdan" unicode="&#xe659;" 
d="M127 -26q0 -21 14.5 -36t35.5 -15h637q21 0 35.5 15t14.5 36v0v69v598v1q0 13 -8 25q-8 13 -33 36q-3 4 -30 29t-35 32q-52 50 -81.5 65.5t-70.5 15.5h-429q-21 0 -35.5 -15t-14.5 -36v0v-820v0zM177 896h429q51 0 89 -18.5t98 -75.5q13 -13 36.5 -35t32 -30t22.5 -23.5
t18.5 -24.5t8.5 -21.5t4 -26.5v-667q0 -42 -29.5 -72t-71.5 -30h-637q-41 0 -70.5 30t-29.5 72v820q0 42 29.5 72t70.5 30v0zM504 589q11 0 18 7.5t7 18t-7.5 18t-17.5 7.5h-302q-10 0 -17.5 -7.5t-7.5 -17.5v-1q0 -10 7.5 -17.5t17.5 -7.5h302v0zM794 410q10 0 17.5 7.5
t7.5 18t-7.5 18t-17.5 7.5h-592q-10 0 -17.5 -7.5t-7.5 -18.5v0q0 -10 7.5 -17.5t17.5 -7.5h592zM796 228q10 0 17.5 7.5t7.5 18t-7.5 18t-17.5 7.5h-592q-11 0 -18 -7.5t-7 -17.5v-1q0 -10 7 -17.5t18 -7.5h592zM637 647q-7 8 -7 19v0v192q0 11 7 18.5t17.5 7.5t18 -7.5
t7.5 -18.5v-167h176q10 0 17.5 -7.5t7.5 -18t-7.5 -18t-17.5 -7.5h-201v0q-11 0 -18 7v0zM791 51q10 0 17.5 7.5t7.5 18t-7.5 18t-17.5 7.5h-588q-10 0 -17.5 -7.5t-7.5 -17.5v0q0 -11 7.5 -18.5t17.5 -7.5h588z" />
    <glyph glyph-name="shouye" unicode="&#xe65a;" 
d="M603 857q-15 16 -42 27.5t-49 11.5v0q-54 0 -91 -39l-388 -404q-19 -19 -26.5 -39t-7 -32t5.5 -22q5 -11 22 -21.5t47 -10.5h61v-319q0 -59 31.5 -98t84.5 -39h165v329q0 30 6.5 46t24.5 16h125q22 0 29 -14.5t7 -47.5v-329h165q53 0 88 41.5t35 95.5v319h60q49 0 63 32
q5 10 5.5 22t-7 32t-26.5 39zM842 384v-375q0 -28 -22.5 -56t-48.5 -28h-103v276q0 59 -22 89t-73 30h-121q-51 0 -71.5 -30.5t-20.5 -88.5v-276h-109q-26 0 -42.5 27.5t-16.5 56.5v375h-138q9 17 22 30l386 399q28 29 50 29q11 0 26.5 -9.5t26.5 -19.5l383 -399
q26 -27 28 -30h-134z" />
    <glyph glyph-name="shengxian" unicode="&#xe65b;" horiz-adv-x="1364" 
d="M610 -127h-1q-20 0 -34 14q-16 17 -16 41v181q-68 37 -118 73.5t-66.5 54t-40.5 44.5q-21 25 -32 32q-3 2 -8 2q-6 0 -14.5 -4.5t-20.5 -15.5t-20 -19l-24 -24q-36 -39 -61 -61q-59 -52 -99 -52h-1q-22 0 -38 17q-18 19 -15 58q3 44 53 151q7 18 4 29q-54 116 -57 160
q-4 38 14 58q16 17 38 17h2q38 0 98 -52q12 -10 63 -61l23.5 -23.5t19.5 -18.5t21 -16.5t14 -4.5q4 0 8 2q11 7 32 32q24 27 40.5 44.5t66.5 54t118 73.5v182q0 25 16 41q14 14 34 14h1q30 0 74 -34q151 -119 184 -153q37 -3 73.5 -9.5t90.5 -23.5t101 -40.5t96.5 -64.5
t85.5 -92q34 -48 34 -95t-34 -95q-36 -51 -85.5 -91.5t-96.5 -64.5t-101 -40.5t-90.5 -23.5t-73.5 -10q-40 -41 -184 -153q-44 -33 -74 -33zM295 372q21 0 38 -12t44 -43q21 -25 38.5 -42.5t66.5 -52.5t117 -72l15 -7v-214q15 4 37 22q152 118 184 155l7 8l11 1q31 3 65 8
t84.5 20t94.5 36t91.5 58.5t80.5 85.5q24 35 24 63.5t-24 63.5q-33 48 -80.5 85.5t-91.5 58.5t-94.5 36t-84.5 20t-65 8h-11l-7 9q-32 37 -184 155q-22 17 -37 22v-215l-15 -8q-68 -36 -117.5 -71.5t-66.5 -52.5t-38 -42q-28 -33 -44 -43q-17 -12 -38 -12q-19 0 -40 12
t-35.5 25.5t-42.5 41.5q-49 49 -59 58q-40 35 -62 39q-1 -5 -1 -10v-5q4 -38 53 -144l2 -3q10 -32 -6 -69q-46 -99 -49 -134q-1 -11 1 -14q21 3 62 38q30 27 58 58q31 30 43.5 41.5t34.5 24.5t41 13v0v0zM1098 289q-39 0 -67 28t-28 68t28 68t67 28t67 -28t28 -68t-28 -68
t-67 -28zM1098 427q-17 0 -28.5 -12t-11.5 -29v0q0 -17 12 -29.5t28 -12.5q16 1 28 13t12 28v1v0q0 17 -12 29t-28 12z" />
    <glyph glyph-name="tianjia" unicode="&#xe65c;" 
d="M512 -77q94 0 179 36.5t147 98.5t98.5 147t36.5 179t-36.5 179t-98.5 147t-147 98.5t-179 36.5t-179 -36.5t-147 -98.5t-98.5 -147t-36.5 -179t36.5 -179t98.5 -147t147 -98.5t179 -36.5zM512 -128q-139 0 -257 68.5t-186.5 186.5t-68.5 257t68.5 257t186.5 186.5
t257 68.5t257 -68.5t186.5 -186.5t68.5 -257t-68.5 -257t-186.5 -186.5t-257 -68.5zM279 358h466q10 0 17.5 7.5t7.5 18.5t-7.5 18.5t-17.5 7.5h-466q-10 0 -17.5 -7.5t-7.5 -18.5t7.5 -18.5t17.5 -7.5zM486 617v-466q0 -10 7.5 -17.5t18.5 -7.5t18.5 7.5t7.5 17.5v466
q0 10 -7.5 17.5t-18.5 7.5t-18.5 -7.5t-7.5 -17.5z" />
    <glyph glyph-name="shuiguo" unicode="&#xe65d;" 
d="M503 658q6 -5 14 -5q11 0 18 9q4 4 5 10q1 1 1 5v7t0.5 10t1.5 11q8 47 46 87.5t84 51.5q4 1 5 0h5q14 2 19 16q4 11 -2 20t-16 11q-2 1 -9 1l-7 -1l-14 -4q-18 -5 -36 -13q-17 -8 -33 -20q-15 -10 -32.5 -28.5t-27.5 -34.5q-6 -10 -11 -21l-8 -20q-5 -12 -11 -40
q0 -3 -0.5 -6t-0.5 -6.5v-5.5l-1 -8q-3 -18 10 -26v0zM196 756q18 -14 41 -23q5 -2 22 -7q2 -1 24 -5q3 -1 9.5 -1.5t9.5 -0.5l7 -1h10h11l13 1l8 1q2 0 9 1t10 2q38 8 60 21q10 6 15 10l6 6l7 5q10 14 13 21q3 6 4 12q5 21 -11 42q-1 2 -3.5 5l-2.5 3q-8 10 -31 23
q-42 25 -109 25l-14 -1h-10q-2 -1 -9.5 -2t-11.5 -2q-68 -15 -93 -50q-17 -24 -10 -48q6 -21 26 -37v0zM225 825q14 11 47 19l16 2l19 2h9q66 0 96 -18q22 -14 14 -31q-6 -15 -35 -24t-69 -9t-70 9q-25 8 -33 20q-10 17 6 30zM932 340v4l-1 18q-1 4 -1.5 12t-1.5 13l-2 16
q-7 33 -9 40q-8 25 -11 33q-29 73 -79 111q-15 11 -30 20q-8 5 -31 14q-14 5 -45 11q-4 1 -10.5 1.5t-9.5 1.5l-12 1h-7h-10q-2 -1 -9 -1.5t-11 -1.5q-13 -3 -25 -7t-26 -9t-23 -8t-25 -10.5t-21.5 -9.5t-24.5 -11t-22 -10q-41 19 -82 35q-48 21 -98 31q-7 2 -15 2h-7l-6 -1
h-8t-7 -1h-9q-2 -1 -11.5 -2.5t-13.5 -2.5q-20 -5 -32 -10q-4 -1 -10.5 -4l-6.5 -3q-17 -8 -41 -26q-1 -1 -4.5 -4t-4.5 -5q-8 -6 -15 -14q-1 -2 -4.5 -6t-5.5 -6q-10 -13 -19 -28q-47 -79 -48 -195h1q0 -51 5 -79q1 -3 2 -10t2 -11q12 -46 18 -63q7 -18 10 -25l7 -14l7 -14
q1 -2 5.5 -10t6.5 -13q14 -22 28 -41q4 -4 11 -12.5t9 -11.5l8 -9l10 -10l7 -6l13 -13q3 -3 13 -11l15 -12q52 -39 113 -63q19 -7 63 -18q4 -1 13 -2.5t13 -2.5q5 -1 14.5 -1.5t13.5 -1.5l12 -1h8h9h6h9h17l24 2q4 0 19 2t22 4q44 9 76 22q59 24 110 63q6 4 15.5 12.5
t13.5 11.5l12 12q1 1 3 2.5t2 2.5q7 6 9 9l10 11q2 2 5.5 6.5t6.5 8.5t6 7q32 44 50 83q6 15 15 38q6 14 14 48q12 47 12 110h1v12zM883 313v-11l-1 -6l-1 -20l-3 -17q-7 -37 -8 -42q-15 -55 -57.5 -118.5t-87.5 -97.5q-55 -42 -128 -65q-8 -2 -44 -10l-18 -3q-14 -1 -21 -2
h-8q-11 0 -22 -1h-11l-8 1l-22 1l-18 3q-39 7 -45 9q-33 10 -46 16q-50 20 -93 53q-5 4 -13.5 11t-10.5 10l-10 9q-6 5 -12 12l-5 6q-2 2 -6.5 7t-7.5 8q-15 20 -22 30q-5 8 -19 32q-6 9 -10 19q-9 19 -15 35q-3 7 -11 34q-1 5 -10 49q0 5 -1 13.5t-1 13.5l-1 9v9v10v9v6
q1 4 1 11t1 10l1 13q0 2 2 15t4 19q6 24 9 33q14 48 46 87l8 8q4 6 9 10q2 2 7.5 6.5t8.5 6.5q24 18 55 27q5 2 30 6l15 1q19 0 42 -7q20 -6 24 -8l23 -8l60 -24l39 -17l10 -4l4 -2l38 17l66 27l27 10q28 10 57 16q9 1 19 0l11 -1q21 -4 25 -5q23 -7 36 -14q18 -11 29 -19
q11 -9 16 -16l7 -6l5 -7t8 -10q23 -33 36 -74q3 -9 10 -36l3 -16q0 -4 1 -12t2 -11l1 -10v-14l1 -11v-13z" />
    <glyph glyph-name="tishi" unicode="&#xe65e;" 
d="M320 240q-82 47 -131 127.5t-49 175.5q0 96 49.5 177t135.5 128.5t187 47.5t187 -47.5t135.5 -128.5t49.5 -177q0 -95 -49 -175.5t-131 -127.5q-9 -47 -42 -85h-300q-14 16 -26 40.5t-16 44.5v0zM778 509v1q0 111 -78 189t-188 79q-35 0 -35 -33q0 -6 9.5 -11.5
t25.5 -5.5q86 0 149.5 -63.5t63.5 -155.5q0 -5 9.5 -11t25.5 -6q5 0 11.5 6.5t6.5 10.5v0zM352 71q0 14 10.5 24t25.5 10h248q15 0 25.5 -10t10.5 -24t-10.5 -23.5t-25.5 -9.5h-248h-1q-14 0 -24 9.5t-11 23.5v0zM655 -13q-20 -38 -58.5 -61t-84.5 -23h-2q-39 0 -80.5 24.5
t-60.5 59.5h286z" />
    <glyph glyph-name="xinxing" unicode="&#xe65f;" horiz-adv-x="1078" 
d="M983 800.5q-39 39.5 -106 67t-123 27.5h-1h-1q-47 0 -106 -20.5t-95 -49.5l-11 -9l-30 22l-1 1q-35 23 -88.5 40t-95.5 17q-45 0 -87 -12l-14 -4q-30 -10 -68 -33.5t-61 -46.5q-39 -39 -67 -106t-28 -122v-1q0 -135 95 -230l428 -428q7 -7 16 -7t16 7l428 428
q39 39 67 106.5t28 123t-28 123t-67 107zM539 -27l-400 400q-33 33 -56.5 89t-23.5 103v0q0 113 80 193q32 33 88 56t103 23v0q30 0 57.5 -5t44.5 -11t32 -14.5t19 -12t7 -6.5l9 -5l-204 -203q-7 -8 -8.5 -19.5t8.5 -22.5q7 -6 15.5 -7.5t13.5 -0.5t6 3l224 225
q33 33 89 56.5t103 23.5h1q112 0 192 -80q33 -33 56.5 -89.5t23.5 -103t-23.5 -103t-56.5 -89.5z" />
    <glyph glyph-name="tuiding" unicode="&#xe660;" horiz-adv-x="1138" 
d="M31 294h440q15 0 23.5 9t8.5 23v1q0 13 -9 21.5t-21 8.5h-2h-440q-12 2 -21.5 -6.5t-9.5 -22t9.5 -24t21.5 -10.5zM31 485h440q15 0 23.5 9t8.5 23v1q0 13 -9 21.5t-21 8.5h-2h-440q-12 2 -21.5 -7.5t-9.5 -21.5q0 -14 9 -24t22 -10zM93 676h441q14 0 22.5 9t8.5 23
q0 12 -9 20t-22 8h-441q-12 2 -20 -6t-8 -19q0 -15 8 -25t20 -10zM1126 374l-248 354q-9 8 -23 8h-132v129v1q0 13 -9 21.5t-21 8.5h-1h-503q-14 0 -22.5 -9t-8.5 -22t8.5 -21t22.5 -8h472v-505q0 -14 8.5 -22.5t22.5 -8.5h375v-220h-68q-10 54 -54 90t-101 36
q-56 0 -99 -35.5t-56 -90.5h-257q-11 54 -55 90t-100 36q-57 0 -100 -35.5t-56 -90.5h-90q-14 0 -22.5 -9t-8.5 -22q0 -15 9 -23t22 -8h99q11 -54 54.5 -90t100.5 -36q56 0 99 35.5t56 90.5h257q11 -54 55 -90t101 -36q56 0 99 35.5t56 90.5h99q14 0 22.5 9t8.5 22v314
q-12 7 -12 11v0zM282.5 -51q-39.5 0 -66.5 27.5t-27 66.5q0 40 27.5 67t65.5 27t65.5 -27.5t27.5 -66.5t-26.5 -66.5t-66 -27.5zM847 -51q-40 0 -66.5 27.5t-26.5 66.5q0 40 27 67t66 27q40 0 66.5 -27.5t26.5 -66.5t-26.5 -66.5t-66.5 -27.5zM839 676l223 -316h-339v316
h116z" />
    <glyph glyph-name="yiwen" unicode="&#xe661;" 
d="M512 836q92 0 175.5 -36t144 -96.5t96.5 -144t36 -175.5t-36 -175.5t-96.5 -144t-144 -96.5t-175.5 -36t-175.5 36t-144 96.5t-96.5 144t-36 175.5t36 175.5t96.5 144t144 96.5t175.5 36zM512 896q-139 0 -257 -68.5t-186.5 -186.5t-68.5 -257t68.5 -257t186.5 -186.5
t257 -68.5t257 68.5t186.5 186.5t68.5 257t-68.5 257t-186.5 186.5t-257 68.5zM469 142.5q0 -17.5 12.5 -30t30.5 -12.5t30.5 12.5t12.5 30t-12.5 30t-30.5 12.5t-30.5 -12.5t-12.5 -30zM505.5 239q-12.5 0 -21 9t-8.5 21q0 33 11 63t25.5 48t32 32.5t25.5 19t11 6.5
q42 33 37 75q-1 19 -19.5 37t-43.5 23q-28 6 -58.5 -1t-48.5 -23q-14 -12 -22 -30t-9 -26t-1 -12q0 -12 -9 -21t-21 -9h-1q-12 0 -20.5 9t-8.5 21v0q0 8 1.5 21t14.5 42t35 49q30 27 73.5 38t92.5 0q42 -14 67 -36t31.5 -46.5t6.5 -42t-4 -32.5q-18 -63 -69 -91v-1
q-3 -1 -8.5 -4t-17 -13t-20.5 -22t-16 -31.5t-7 -42.5q0 -12 -9 -21t-21.5 -9z" />
    <glyph glyph-name="yonghu" unicode="&#xe662;" 
d="M505 296q-123 0 -211 88t-88 212t88 212t211.5 88t211 -88t87.5 -212t-87.5 -212t-211.5 -88v0zM505 861q-109 0 -186.5 -78t-77.5 -187.5t77.5 -187.5t186.5 -78t186.5 78t77.5 187.5t-77.5 187.5t-186.5 78v0zM993 -127h-975q-7 0 -12.5 5t-5.5 12v7q0 114 68 210.5
t184 152.5t253 56t253.5 -56t184 -152.5t67.5 -210.5v-5q0 -8 -5.5 -13.5t-11.5 -5.5zM35 -93h940q-4 103 -68 189t-170.5 135.5t-231.5 49.5t-232 -50t-171 -136t-67 -188z" />
    <glyph glyph-name="zhifubaozhifu" unicode="&#xe663;" 
d="M1024 195v504q0 82 -57.5 139.5t-139.5 57.5h-630q-82 0 -139.5 -57.5t-57.5 -139.5v-630q0 -82 57.5 -139.5t139.5 -57.5h630q68 0 125 47.5t69 114.5q-287 124 -396 177q-72 -87 -148.5 -130.5t-177.5 -43.5q-105 0 -169 56.5t-56 137.5q3 24 10.5 46t26.5 47.5
t46.5 42.5t74.5 25.5t107 3.5q23 -2 43 -5t40 -7t32.5 -7t33.5 -9t30.5 -9t35 -11.5t35.5 -12.5q35 65 57 140h-398v39h197v71h-240v43h240v102q0 2 1 4.5t6 7t13 4.5h98v-118h256v-43h-256v-71h209q-11 -46 -36 -108.5t-49 -104.5q27 -9 111.5 -36t154.5 -48l71 -22v0z
M284 104q-36 0 -65 7.5t-46.5 19t-30.5 26t-17.5 29.5t-7 28.5t0.5 23.5q7 35 42 63t93 28q131 0 284 -75q-55 -71 -120 -110.5t-133 -39.5z" />
    <glyph glyph-name="zhifuchenggong1" unicode="&#xe664;" 
d="M512 -77q94 0 179 36.5t147 98.5t98.5 147t36.5 179t-36.5 179t-98.5 147t-147 98.5t-179 36.5t-179 -36.5t-147 -98.5t-98.5 -147t-36.5 -179t36.5 -179t98.5 -147t147 -98.5t179 -36.5zM512 -128q-139 0 -257 68.5t-186.5 186.5t-68.5 257t68.5 257t186.5 186.5
t257 68.5t257 -68.5t186.5 -186.5t68.5 -257t-68.5 -257t-186.5 -186.5t-257 -68.5zM832 649l14 -17q-8 8 -19.5 8t-19.5 -8l-411 -414l-157 163q-8 8 -20 8t-20 -8t-7 -19.5t9 -19.5l176 -182q8 -8 19 -8q14 0 22 11l428 431q8 8 8 19t-8 19z" />
    <glyph glyph-name="zhifushibai" unicode="&#xe665;" 
d="M512 -77q94 0 179 36.5t147 98.5t98.5 147t36.5 179t-36.5 179t-98.5 147t-147 98.5t-179 36.5t-179 -36.5t-147 -98.5t-98.5 -147t-36.5 -179t36.5 -179t98.5 -147t147 -98.5t179 -36.5zM512 -128q-139 0 -257 68.5t-186.5 186.5t-68.5 257t68.5 257t186.5 186.5
t257 68.5t257 -68.5t186.5 -186.5t68.5 -257t-68.5 -257t-186.5 -186.5t-257 -68.5zM289 571l413 -435q7 -7 17.5 -7t18 7.5t7.5 17.5t-6 17l-413 435q-8 8 -19 8q-10 0 -17.5 -7.5t-7.5 -17.5t7 -18zM702 606l-413 -434q-7 -8 -7 -18q0 -11 7.5 -18.5t17.5 -7.5q11 0 19 8
l413 435q7 8 7 18.5t-7.5 18t-17.5 7.5q-12 0 -19 -9v0z" />
    <glyph glyph-name="zhuanxiangdijia" unicode="&#xe666;" 
d="M520 -128v0q-4 0 -7 1q-156 60 -264 206q-85 117 -137 281q-25 83 -40.5 174t-18 126.5t-2.5 54.5v0q0 7 5 13t12 8q108 24 222 65q23 8 75 37q33 19 52 29t49 19.5t54 9.5v0q31 0 64 -10t53 -20t54 -29q47 -27 70 -36q12 -6 12 -19q0 -9 -6 -15t-14 -6q-4 0 -7 1
q-26 11 -75 39q-32 18 -50 27t-46.5 18t-54.5 9v0q-19 0 -44.5 -9t-42.5 -18t-48 -26q-55 -31 -81 -40q-104 -38 -211 -63q9 -167 59 -327q49 -158 131 -268q98 -134 238 -190q82 25 164 107q80 79 138 199q74 151 109 356q1 7 7 12t13 5q9 0 15 -6t6 -15v-3
q-37 -213 -114 -370q-62 -126 -148 -210q-44 -43 -92 -72.5t-66 -35.5t-29 -9h-4v0zM653 570q-33 -27 -85.5 -55.5t-93.5 -42.5h207q28 0 38.5 -12t10.5 -40v-209q0 -28 -10.5 -40t-38.5 -12h-328q-29 0 -39.5 12t-10.5 40v220q-26 -4 -52 -6q-3 -1 -6 -1q-9 0 -17 3
q-9 3 -11 16q-1 14 5 20.5t25 8.5q128 15 220.5 49.5t152.5 85.5q14 11 23 14l-18 18q-9 10 -17 20q-22 24 -3 39q11 9 19 5q10 -5 19 -14q33 -33 63 -69q32 -37 60 -76q10 -13 10 -23t-8 -17q-9 -9 -19.5 -5.5t-23.5 20.5q-13 19 -27 37q-13 17 -27 33q-7 -11 -18 -19v0z
M414 658q-21 -35 -48 -69q-26 -33 -63 -65q-10 -9 -20 -10h-2q-10 0 -16 8q-7 9 -5 19t15 21q32 27 58 58q23 28 40 58q7 13 15.5 17.5t19.5 -1.5q22 -10 6 -36v0zM683 417v0q0 4 -2.5 7t-6.5 3h-312q-7 0 -9.5 -2.5t-2.5 -7.5v-36h333v36v0zM683 337h-334v-45h334v45z
M683 248h-334v-32q0 -12 9 -12h316q9 0 9 12v32zM535 575q0 -25 -23 -25h-1q-9 0 -16 5t-7 18v138q0 10 7 16t15 6h1q11 0 18 -6q6 -6 6 -15v-1v-136z" />
    <glyph glyph-name="weixuan" unicode="&#xe667;" 
d="M512 -71q93 0 177 36t145 97t97 145t36 177t-36 177t-97 145t-145 97t-177 36t-177 -36t-145 -97t-97 -145t-36 -177t36 -177t97 -145t145 -97t177 -36zM512 -128q-139 0 -257 68.5t-186.5 186.5t-68.5 257t68.5 257t186.5 186.5t257 68.5t257 -68.5t186.5 -186.5
t68.5 -257t-68.5 -257t-186.5 -186.5t-257 -68.5z" />
    </font>
</defs>
</svg>
